<svg xmlns="http://www.w3.org/2000/svg" viewBox="0 0 600 600" data-picture="cay-lieu--toc-lieu-tet-hoa">
<g class="scene-back">
<rect x="0" y="0" width="600" height="600" rx="0" id="r-nen-troi" data-region="nen-troi" class="region" fill="#FFFFFF" stroke="#1B2A38" stroke-width="3" stroke-linejoin="round"/>
<ellipse cx="505" cy="110" rx="44" ry="44" id="r-mat-troi" data-region="mat-troi" class="region" fill="#FFFFFF" stroke="#1B2A38" stroke-width="3" stroke-linejoin="round"/>
<path d="M 56.5 93.8 Q 40 93.8 44.4 80 Q 41.1 60.8 64.8 60.8 Q 70.3 42.6 90.6 47 Q 104.9 31.6 121.4 49.8 Q 145.6 45.9 142.3 70.1 Q 152.2 93.8 133.5 93.8 Z" id="r-may-1" data-region="may-1" class="region" fill="#FFFFFF" stroke="#1B2A38" stroke-width="3" stroke-linejoin="round"/>
<rect x="71.2" y="404" width="17.6" height="66" rx="3" id="r-than-cay-hoa-1" data-region="than-cay-hoa-1" class="region" fill="#FFFFFF" stroke="#1B2A38" stroke-width="3" stroke-linejoin="round"/>
<ellipse cx="80" cy="371" rx="48.4" ry="48.4" id="r-cay-hoa-1" data-region="cay-hoa-1" class="region" fill="#FFFFFF" stroke="#1B2A38" stroke-width="3" stroke-linejoin="round"/>
<rect x="512" y="410" width="16" height="60" rx="3" id="r-than-cay-hoa-2" data-region="than-cay-hoa-2" class="region" fill="#FFFFFF" stroke="#1B2A38" stroke-width="3" stroke-linejoin="round"/>
<ellipse cx="520" cy="380" rx="44" ry="44" id="r-cay-hoa-2" data-region="cay-hoa-2" class="region" fill="#FFFFFF" stroke="#1B2A38" stroke-width="3" stroke-linejoin="round"/>
<path d="M 0 470 Q 150 440 300 465 Q 450 490 600 455 L 600 600 L 0 600 Z" id="r-nen-dat" data-region="nen-dat" class="region" fill="#FFFFFF" stroke="#1B2A38" stroke-width="3" stroke-linejoin="round"/>
</g>
<g id="subject" class="subject anim-sway">
<path d="M 270 480 Q 280 380 285 300 L 315 300 Q 320 380 330 480 Z" id="r-than-cay-lieu" data-region="than-cay-lieu" class="region" fill="#FFFFFF" stroke="#1B2A38" stroke-width="3" stroke-linejoin="round"/>
<ellipse cx="300" cy="230" rx="170" ry="110" id="r-tan-lieu" data-region="tan-lieu" class="region" fill="#FFFFFF" stroke="#1B2A38" stroke-width="3" stroke-linejoin="round"/>
<rect x="136" y="250" width="28" height="150" rx="14" id="r-nhanh-lieu-1" data-region="nhanh-lieu-1" class="region" fill="#FFFFFF" stroke="#1B2A38" stroke-width="3" stroke-linejoin="round"/>
<rect x="176" y="250" width="28" height="180" rx="14" id="r-nhanh-lieu-2" data-region="nhanh-lieu-2" class="region" fill="#FFFFFF" stroke="#1B2A38" stroke-width="3" stroke-linejoin="round"/>
<rect x="216" y="250" width="28" height="210" rx="14" id="r-nhanh-lieu-3" data-region="nhanh-lieu-3" class="region" fill="#FFFFFF" stroke="#1B2A38" stroke-width="3" stroke-linejoin="round"/>
<rect x="356" y="250" width="28" height="150" rx="14" id="r-nhanh-lieu-4" data-region="nhanh-lieu-4" class="region" fill="#FFFFFF" stroke="#1B2A38" stroke-width="3" stroke-linejoin="round"/>
<rect x="396" y="250" width="28" height="180" rx="14" id="r-nhanh-lieu-5" data-region="nhanh-lieu-5" class="region" fill="#FFFFFF" stroke="#1B2A38" stroke-width="3" stroke-linejoin="round"/>
<rect x="436" y="250" width="28" height="210" rx="14" id="r-nhanh-lieu-6" data-region="nhanh-lieu-6" class="region" fill="#FFFFFF" stroke="#1B2A38" stroke-width="3" stroke-linejoin="round"/>
<g class="deco" pointer-events="none"><circle cx="279.2" cy="214" r="6.4" fill="#1B2A38"/></g>
<g class="deco" pointer-events="none"><circle cx="320.8" cy="214" r="6.4" fill="#1B2A38"/></g>
<g class="deco" pointer-events="none"><circle cx="281.2" cy="211.6" r="2.1" fill="#FFFFFF"/></g>
<g class="deco" pointer-events="none"><circle cx="322.8" cy="211.6" r="2.1" fill="#FFFFFF"/></g>
<ellipse cx="263.2" cy="230" rx="8.8" ry="5.6" id="r-ma-trai" data-region="ma-trai" class="region" fill="#FFFFFF" stroke="#1B2A38" stroke-width="3" stroke-linejoin="round"/>
<ellipse cx="336.8" cy="230" rx="8.8" ry="5.6" id="r-ma-phai" data-region="ma-phai" class="region" fill="#FFFFFF" stroke="#1B2A38" stroke-width="3" stroke-linejoin="round"/>
<g class="deco" pointer-events="none"><path d="M 288 238 Q 300 250.8 312 238" fill="none" stroke="#1B2A38" stroke-width="4.2" stroke-linecap="round" stroke-linejoin="round"/></g>
<ellipse cx="150" cy="349" rx="9" ry="9" id="r-hoa-nho-1-canh-1" data-region="hoa-nho-1-canh-1" class="region" fill="#FFFFFF" stroke="#1B2A38" stroke-width="3" stroke-linejoin="round"/>
<ellipse cx="160.5" cy="356.6" rx="9" ry="9" id="r-hoa-nho-1-canh-2" data-region="hoa-nho-1-canh-2" class="region" fill="#FFFFFF" stroke="#1B2A38" stroke-width="3" stroke-linejoin="round"/>
<ellipse cx="156.5" cy="368.9" rx="9" ry="9" id="r-hoa-nho-1-canh-3" data-region="hoa-nho-1-canh-3" class="region" fill="#FFFFFF" stroke="#1B2A38" stroke-width="3" stroke-linejoin="round"/>
<ellipse cx="143.5" cy="368.9" rx="9" ry="9" id="r-hoa-nho-1-canh-4" data-region="hoa-nho-1-canh-4" class="region" fill="#FFFFFF" stroke="#1B2A38" stroke-width="3" stroke-linejoin="round"/>
<ellipse cx="139.5" cy="356.6" rx="9" ry="9" id="r-hoa-nho-1-canh-5" data-region="hoa-nho-1-canh-5" class="region" fill="#FFFFFF" stroke="#1B2A38" stroke-width="3" stroke-linejoin="round"/>
<ellipse cx="150" cy="360" rx="7" ry="7" id="r-hoa-nho-1-nhuy" data-region="hoa-nho-1-nhuy" class="region" fill="#FFFFFF" stroke="#1B2A38" stroke-width="3" stroke-linejoin="round"/>
<ellipse cx="190" cy="379" rx="9" ry="9" id="r-hoa-nho-2-canh-1" data-region="hoa-nho-2-canh-1" class="region" fill="#FFFFFF" stroke="#1B2A38" stroke-width="3" stroke-linejoin="round"/>
<ellipse cx="200.5" cy="386.6" rx="9" ry="9" id="r-hoa-nho-2-canh-2" data-region="hoa-nho-2-canh-2" class="region" fill="#FFFFFF" stroke="#1B2A38" stroke-width="3" stroke-linejoin="round"/>
<ellipse cx="196.5" cy="398.9" rx="9" ry="9" id="r-hoa-nho-2-canh-3" data-region="hoa-nho-2-canh-3" class="region" fill="#FFFFFF" stroke="#1B2A38" stroke-width="3" stroke-linejoin="round"/>
<ellipse cx="183.5" cy="398.9" rx="9" ry="9" id="r-hoa-nho-2-canh-4" data-region="hoa-nho-2-canh-4" class="region" fill="#FFFFFF" stroke="#1B2A38" stroke-width="3" stroke-linejoin="round"/>
<ellipse cx="179.5" cy="386.6" rx="9" ry="9" id="r-hoa-nho-2-canh-5" data-region="hoa-nho-2-canh-5" class="region" fill="#FFFFFF" stroke="#1B2A38" stroke-width="3" stroke-linejoin="round"/>
<ellipse cx="190" cy="390" rx="7" ry="7" id="r-hoa-nho-2-nhuy" data-region="hoa-nho-2-nhuy" class="region" fill="#FFFFFF" stroke="#1B2A38" stroke-width="3" stroke-linejoin="round"/>
<ellipse cx="410" cy="379" rx="9" ry="9" id="r-hoa-nho-3-canh-1" data-region="hoa-nho-3-canh-1" class="region" fill="#FFFFFF" stroke="#1B2A38" stroke-width="3" stroke-linejoin="round"/>
<ellipse cx="420.5" cy="386.6" rx="9" ry="9" id="r-hoa-nho-3-canh-2" data-region="hoa-nho-3-canh-2" class="region" fill="#FFFFFF" stroke="#1B2A38" stroke-width="3" stroke-linejoin="round"/>
<ellipse cx="416.5" cy="398.9" rx="9" ry="9" id="r-hoa-nho-3-canh-3" data-region="hoa-nho-3-canh-3" class="region" fill="#FFFFFF" stroke="#1B2A38" stroke-width="3" stroke-linejoin="round"/>
<ellipse cx="403.5" cy="398.9" rx="9" ry="9" id="r-hoa-nho-3-canh-4" data-region="hoa-nho-3-canh-4" class="region" fill="#FFFFFF" stroke="#1B2A38" stroke-width="3" stroke-linejoin="round"/>
<ellipse cx="399.5" cy="386.6" rx="9" ry="9" id="r-hoa-nho-3-canh-5" data-region="hoa-nho-3-canh-5" class="region" fill="#FFFFFF" stroke="#1B2A38" stroke-width="3" stroke-linejoin="round"/>
<ellipse cx="410" cy="390" rx="7" ry="7" id="r-hoa-nho-3-nhuy" data-region="hoa-nho-3-nhuy" class="region" fill="#FFFFFF" stroke="#1B2A38" stroke-width="3" stroke-linejoin="round"/>
<ellipse cx="450" cy="349" rx="9" ry="9" id="r-hoa-nho-4-canh-1" data-region="hoa-nho-4-canh-1" class="region" fill="#FFFFFF" stroke="#1B2A38" stroke-width="3" stroke-linejoin="round"/>
<ellipse cx="460.5" cy="356.6" rx="9" ry="9" id="r-hoa-nho-4-canh-2" data-region="hoa-nho-4-canh-2" class="region" fill="#FFFFFF" stroke="#1B2A38" stroke-width="3" stroke-linejoin="round"/>
<ellipse cx="456.5" cy="368.9" rx="9" ry="9" id="r-hoa-nho-4-canh-3" data-region="hoa-nho-4-canh-3" class="region" fill="#FFFFFF" stroke="#1B2A38" stroke-width="3" stroke-linejoin="round"/>
<ellipse cx="443.5" cy="368.9" rx="9" ry="9" id="r-hoa-nho-4-canh-4" data-region="hoa-nho-4-canh-4" class="region" fill="#FFFFFF" stroke="#1B2A38" stroke-width="3" stroke-linejoin="round"/>
<ellipse cx="439.5" cy="356.6" rx="9" ry="9" id="r-hoa-nho-4-canh-5" data-region="hoa-nho-4-canh-5" class="region" fill="#FFFFFF" stroke="#1B2A38" stroke-width="3" stroke-linejoin="round"/>
<ellipse cx="450" cy="360" rx="7" ry="7" id="r-hoa-nho-4-nhuy" data-region="hoa-nho-4-nhuy" class="region" fill="#FFFFFF" stroke="#1B2A38" stroke-width="3" stroke-linejoin="round"/>
<ellipse cx="230" cy="319" rx="9" ry="9" id="r-hoa-nho-5-canh-1" data-region="hoa-nho-5-canh-1" class="region" fill="#FFFFFF" stroke="#1B2A38" stroke-width="3" stroke-linejoin="round"/>
<ellipse cx="240.5" cy="326.6" rx="9" ry="9" id="r-hoa-nho-5-canh-2" data-region="hoa-nho-5-canh-2" class="region" fill="#FFFFFF" stroke="#1B2A38" stroke-width="3" stroke-linejoin="round"/>
<ellipse cx="236.5" cy="338.9" rx="9" ry="9" id="r-hoa-nho-5-canh-3" data-region="hoa-nho-5-canh-3" class="region" fill="#FFFFFF" stroke="#1B2A38" stroke-width="3" stroke-linejoin="round"/>
<ellipse cx="223.5" cy="338.9" rx="9" ry="9" id="r-hoa-nho-5-canh-4" data-region="hoa-nho-5-canh-4" class="region" fill="#FFFFFF" stroke="#1B2A38" stroke-width="3" stroke-linejoin="round"/>
<ellipse cx="219.5" cy="326.6" rx="9" ry="9" id="r-hoa-nho-5-canh-5" data-region="hoa-nho-5-canh-5" class="region" fill="#FFFFFF" stroke="#1B2A38" stroke-width="3" stroke-linejoin="round"/>
<ellipse cx="230" cy="330" rx="7" ry="7" id="r-hoa-nho-5-nhuy" data-region="hoa-nho-5-nhuy" class="region" fill="#FFFFFF" stroke="#1B2A38" stroke-width="3" stroke-linejoin="round"/>
<ellipse cx="370" cy="319" rx="9" ry="9" id="r-hoa-nho-6-canh-1" data-region="hoa-nho-6-canh-1" class="region" fill="#FFFFFF" stroke="#1B2A38" stroke-width="3" stroke-linejoin="round"/>
<ellipse cx="380.5" cy="326.6" rx="9" ry="9" id="r-hoa-nho-6-canh-2" data-region="hoa-nho-6-canh-2" class="region" fill="#FFFFFF" stroke="#1B2A38" stroke-width="3" stroke-linejoin="round"/>
<ellipse cx="376.5" cy="338.9" rx="9" ry="9" id="r-hoa-nho-6-canh-3" data-region="hoa-nho-6-canh-3" class="region" fill="#FFFFFF" stroke="#1B2A38" stroke-width="3" stroke-linejoin="round"/>
<ellipse cx="363.5" cy="338.9" rx="9" ry="9" id="r-hoa-nho-6-canh-4" data-region="hoa-nho-6-canh-4" class="region" fill="#FFFFFF" stroke="#1B2A38" stroke-width="3" stroke-linejoin="round"/>
<ellipse cx="359.5" cy="326.6" rx="9" ry="9" id="r-hoa-nho-6-canh-5" data-region="hoa-nho-6-canh-5" class="region" fill="#FFFFFF" stroke="#1B2A38" stroke-width="3" stroke-linejoin="round"/>
<ellipse cx="370" cy="330" rx="7" ry="7" id="r-hoa-nho-6-nhuy" data-region="hoa-nho-6-nhuy" class="region" fill="#FFFFFF" stroke="#1B2A38" stroke-width="3" stroke-linejoin="round"/>
</g>
<g class="scene-front">
<ellipse cx="220" cy="140" rx="10" ry="6" transform="rotate(20 220 140)" id="r-canh-hoa-roi-1" data-region="canh-hoa-roi-1" class="region" fill="#FFFFFF" stroke="#1B2A38" stroke-width="3" stroke-linejoin="round"/>
<ellipse cx="380" cy="100" rx="10" ry="6" transform="rotate(-30 380 100)" id="r-canh-hoa-roi-2" data-region="canh-hoa-roi-2" class="region" fill="#FFFFFF" stroke="#1B2A38" stroke-width="3" stroke-linejoin="round"/>
</g>
</svg>