<svg xmlns="http://www.w3.org/2000/svg" viewBox="0 0 600 600" data-picture="bup-be-go--the-a-dem-sao">
<g class="scene-back">
<rect x="0" y="0" width="600" height="600" rx="0" id="r-nen-troi" data-region="nen-troi" class="region" fill="#FFFFFF" stroke="#1B2A38" stroke-width="3" stroke-linejoin="round"/>
<path d="M 490 50 C 412 56 412 164 490 170 C 452 146 452 76 490 50 Z" id="r-mat-trang" data-region="mat-trang" class="region" fill="#FFFFFF" stroke="#1B2A38" stroke-width="3" stroke-linejoin="round"/>
<polygon points="80,55 84.1,64.3 94.3,65.4 86.7,72.2 88.8,82.1 80,77 71.2,82.1 73.3,72.2 65.7,65.4 75.9,64.3" id="r-ngoi-sao-1" data-region="ngoi-sao-1" class="region" fill="#FFFFFF" stroke="#1B2A38" stroke-width="3" stroke-linejoin="round"/>
<polygon points="190,115 194.1,124.3 204.3,125.4 196.7,132.2 198.8,142.1 190,137 181.2,142.1 183.3,132.2 175.7,125.4 185.9,124.3" id="r-ngoi-sao-2" data-region="ngoi-sao-2" class="region" fill="#FFFFFF" stroke="#1B2A38" stroke-width="3" stroke-linejoin="round"/>
<polygon points="350,45 354.1,54.3 364.3,55.4 356.7,62.2 358.8,72.1 350,67 341.2,72.1 343.3,62.2 335.7,55.4 345.9,54.3" id="r-ngoi-sao-3" data-region="ngoi-sao-3" class="region" fill="#FFFFFF" stroke="#1B2A38" stroke-width="3" stroke-linejoin="round"/>
<polygon points="560,215 564.1,224.3 574.3,225.4 566.7,232.2 568.8,242.1 560,237 551.2,242.1 553.3,232.2 545.7,225.4 555.9,224.3" id="r-ngoi-sao-4" data-region="ngoi-sao-4" class="region" fill="#FFFFFF" stroke="#1B2A38" stroke-width="3" stroke-linejoin="round"/>
<polygon points="50,225 54.1,234.3 64.3,235.4 56.7,242.2 58.8,252.1 50,247 41.2,252.1 43.3,242.2 35.7,235.4 45.9,234.3" id="r-ngoi-sao-5" data-region="ngoi-sao-5" class="region" fill="#FFFFFF" stroke="#1B2A38" stroke-width="3" stroke-linejoin="round"/>
<polygon points="70,73 74.7,83.5 86.2,84.7 77.6,92.5 80,103.8 70,98 60,103.8 62.4,92.5 53.8,84.7 65.3,83.5" id="r-sao-lap-lanh-1" data-region="sao-lap-lanh-1" class="region" fill="#FFFFFF" stroke="#1B2A38" stroke-width="3" stroke-linejoin="round"/>
<polygon points="540,53 544.7,63.5 556.2,64.7 547.6,72.5 550,83.8 540,78 530,83.8 532.4,72.5 523.8,64.7 535.3,63.5" id="r-sao-lap-lanh-2" data-region="sao-lap-lanh-2" class="region" fill="#FFFFFF" stroke="#1B2A38" stroke-width="3" stroke-linejoin="round"/>
<polygon points="520,223 524.7,233.5 536.2,234.7 527.6,242.5 530,253.8 520,248 510,253.8 512.4,242.5 503.8,234.7 515.3,233.5" id="r-sao-lap-lanh-3" data-region="sao-lap-lanh-3" class="region" fill="#FFFFFF" stroke="#1B2A38" stroke-width="3" stroke-linejoin="round"/>
<polygon points="90,243 94.7,253.5 106.2,254.7 97.6,262.5 100,273.8 90,268 80,273.8 82.4,262.5 73.8,254.7 85.3,253.5" id="r-sao-lap-lanh-4" data-region="sao-lap-lanh-4" class="region" fill="#FFFFFF" stroke="#1B2A38" stroke-width="3" stroke-linejoin="round"/>
<path d="M 0 470 Q 150 440 300 465 Q 450 490 600 455 L 600 600 L 0 600 Z" id="r-nen-dat" data-region="nen-dat" class="region" fill="#FFFFFF" stroke="#1B2A38" stroke-width="3" stroke-linejoin="round"/>
</g>
<g id="subject" class="subject anim-bounce">
<ellipse cx="300" cy="390" rx="110" ry="96" id="r-than-bup-be" data-region="than-bup-be" class="region" fill="#FFFFFF" stroke="#1B2A38" stroke-width="3" stroke-linejoin="round"/>
<ellipse cx="300" cy="250" rx="86" ry="90" id="r-dau-bup-be" data-region="dau-bup-be" class="region" fill="#FFFFFF" stroke="#1B2A38" stroke-width="3" stroke-linejoin="round"/>
<ellipse cx="300" cy="260" rx="58" ry="56" id="r-mat-bup-be" data-region="mat-bup-be" class="region" fill="#FFFFFF" stroke="#1B2A38" stroke-width="3" stroke-linejoin="round"/>
<ellipse cx="300" cy="400" rx="64" ry="62" id="r-yem-bup-be" data-region="yem-bup-be" class="region" fill="#FFFFFF" stroke="#1B2A38" stroke-width="3" stroke-linejoin="round"/>
<ellipse cx="300" cy="400" rx="24" ry="24" id="r-hoa-yem" data-region="hoa-yem" class="region" fill="#FFFFFF" stroke="#1B2A38" stroke-width="3" stroke-linejoin="round"/>
<ellipse cx="300" cy="400" rx="10" ry="10" id="r-nhuy-hoa-yem" data-region="nhuy-hoa-yem" class="region" fill="#FFFFFF" stroke="#1B2A38" stroke-width="3" stroke-linejoin="round"/>
<ellipse cx="262" cy="410" rx="16" ry="9" transform="rotate(-20 262 410)" id="r-la-hoa-trai" data-region="la-hoa-trai" class="region" fill="#FFFFFF" stroke="#1B2A38" stroke-width="3" stroke-linejoin="round"/>
<ellipse cx="338" cy="410" rx="16" ry="9" transform="rotate(20 338 410)" id="r-la-hoa-phai" data-region="la-hoa-phai" class="region" fill="#FFFFFF" stroke="#1B2A38" stroke-width="3" stroke-linejoin="round"/>
<g class="deco" pointer-events="none"><circle cx="281.3" cy="250" r="5.8" fill="#1B2A38"/></g>
<g class="deco" pointer-events="none"><circle cx="318.7" cy="250" r="5.8" fill="#1B2A38"/></g>
<g class="deco" pointer-events="none"><circle cx="283.1" cy="247.8" r="1.9" fill="#FFFFFF"/></g>
<g class="deco" pointer-events="none"><circle cx="320.5" cy="247.8" r="1.9" fill="#FFFFFF"/></g>
<ellipse cx="266.9" cy="264.4" rx="7.9" ry="5" id="r-ma-trai" data-region="ma-trai" class="region" fill="#FFFFFF" stroke="#1B2A38" stroke-width="3" stroke-linejoin="round"/>
<ellipse cx="333.1" cy="264.4" rx="7.9" ry="5" id="r-ma-phai" data-region="ma-phai" class="region" fill="#FFFFFF" stroke="#1B2A38" stroke-width="3" stroke-linejoin="round"/>
<g class="deco" pointer-events="none"><path d="M 289.2 271.6 Q 300 283.1 310.8 271.6" fill="none" stroke="#1B2A38" stroke-width="3.88" stroke-linecap="round" stroke-linejoin="round"/></g>
</g>
<g class="scene-front">

</g>
</svg>