<svg xmlns="http://www.w3.org/2000/svg" viewBox="0 0 600 600" data-picture="cay-xuong-rong--no-hoa-ngu-sac">
<g class="scene-back">
<rect x="0" y="0" width="600" height="600" rx="0" id="r-nen-troi" data-region="nen-troi" class="region" fill="#FFFFFF" stroke="#1B2A38" stroke-width="3" stroke-linejoin="round"/>
<ellipse cx="505" cy="110" rx="44" ry="44" id="r-mat-troi" data-region="mat-troi" class="region" fill="#FFFFFF" stroke="#1B2A38" stroke-width="3" stroke-linejoin="round"/>
<path d="M 56.5 93.8 Q 40 93.8 44.4 80 Q 41.1 60.8 64.8 60.8 Q 70.3 42.6 90.6 47 Q 104.9 31.6 121.4 49.8 Q 145.6 45.9 142.3 70.1 Q 152.2 93.8 133.5 93.8 Z" id="r-may-1" data-region="may-1" class="region" fill="#FFFFFF" stroke="#1B2A38" stroke-width="3" stroke-linejoin="round"/>
<polygon points="20,470 120,330 220,470" id="r-kim-tu-thap-1" data-region="kim-tu-thap-1" class="region" fill="#FFFFFF" stroke="#1B2A38" stroke-width="3" stroke-linejoin="round"/>
<polygon points="420,470 500,360 580,470" id="r-kim-tu-thap-2" data-region="kim-tu-thap-2" class="region" fill="#FFFFFF" stroke="#1B2A38" stroke-width="3" stroke-linejoin="round"/>
<path d="M 0 480 Q 100 440 220 470 Q 340 500 460 455 Q 540 430 600 460 L 600 600 L 0 600 Z" id="r-nen-dat" data-region="nen-dat" class="region" fill="#FFFFFF" stroke="#1B2A38" stroke-width="3" stroke-linejoin="round"/>
</g>
<g id="subject" class="subject anim-sway">
<polygon points="228,420 372,420 356,486 244,486" id="r-chau-xuong-rong" data-region="chau-xuong-rong" class="region" fill="#FFFFFF" stroke="#1B2A38" stroke-width="3" stroke-linejoin="round"/>
<rect x="218" y="408" width="164" height="22" rx="8" id="r-mieng-chau-xuong-rong" data-region="mieng-chau-xuong-rong" class="region" fill="#FFFFFF" stroke="#1B2A38" stroke-width="3" stroke-linejoin="round"/>
<rect x="170" y="280" width="46" height="110" rx="23" id="r-canh-trai" data-region="canh-trai" class="region" fill="#FFFFFF" stroke="#1B2A38" stroke-width="3" stroke-linejoin="round"/>
<rect x="196" y="344" width="60" height="34" rx="12" id="r-noi-canh-trai" data-region="noi-canh-trai" class="region" fill="#FFFFFF" stroke="#1B2A38" stroke-width="3" stroke-linejoin="round"/>
<rect x="384" y="250" width="46" height="110" rx="23" id="r-canh-phai" data-region="canh-phai" class="region" fill="#FFFFFF" stroke="#1B2A38" stroke-width="3" stroke-linejoin="round"/>
<rect x="344" y="314" width="60" height="34" rx="12" id="r-noi-canh-phai" data-region="noi-canh-phai" class="region" fill="#FFFFFF" stroke="#1B2A38" stroke-width="3" stroke-linejoin="round"/>
<rect x="240" y="180" width="120" height="236" rx="60" id="r-than-xuong-rong" data-region="than-xuong-rong" class="region" fill="#FFFFFF" stroke="#1B2A38" stroke-width="3" stroke-linejoin="round"/>
<ellipse cx="300" cy="180" rx="18" ry="18" id="r-hoa-xuong-rong" data-region="hoa-xuong-rong" class="region" fill="#FFFFFF" stroke="#1B2A38" stroke-width="3" stroke-linejoin="round"/>
<g class="deco" pointer-events="none"><circle cx="279.2" cy="300" r="6.4" fill="#1B2A38"/></g>
<g class="deco" pointer-events="none"><circle cx="320.8" cy="300" r="6.4" fill="#1B2A38"/></g>
<g class="deco" pointer-events="none"><circle cx="281.2" cy="297.6" r="2.1" fill="#FFFFFF"/></g>
<g class="deco" pointer-events="none"><circle cx="322.8" cy="297.6" r="2.1" fill="#FFFFFF"/></g>
<ellipse cx="263.2" cy="316" rx="8.8" ry="5.6" id="r-ma-trai" data-region="ma-trai" class="region" fill="#FFFFFF" stroke="#1B2A38" stroke-width="3" stroke-linejoin="round"/>
<ellipse cx="336.8" cy="316" rx="8.8" ry="5.6" id="r-ma-phai" data-region="ma-phai" class="region" fill="#FFFFFF" stroke="#1B2A38" stroke-width="3" stroke-linejoin="round"/>
<g class="deco" pointer-events="none"><path d="M 288 324 Q 300 336.8 312 324" fill="none" stroke="#1B2A38" stroke-width="4.2" stroke-linecap="round" stroke-linejoin="round"/></g>
<ellipse cx="193" cy="269" rx="9" ry="9" id="r-hoa-nho-1-canh-1" data-region="hoa-nho-1-canh-1" class="region" fill="#FFFFFF" stroke="#1B2A38" stroke-width="3" stroke-linejoin="round"/>
<ellipse cx="203.5" cy="276.6" rx="9" ry="9" id="r-hoa-nho-1-canh-2" data-region="hoa-nho-1-canh-2" class="region" fill="#FFFFFF" stroke="#1B2A38" stroke-width="3" stroke-linejoin="round"/>
<ellipse cx="199.5" cy="288.9" rx="9" ry="9" id="r-hoa-nho-1-canh-3" data-region="hoa-nho-1-canh-3" class="region" fill="#FFFFFF" stroke="#1B2A38" stroke-width="3" stroke-linejoin="round"/>
<ellipse cx="186.5" cy="288.9" rx="9" ry="9" id="r-hoa-nho-1-canh-4" data-region="hoa-nho-1-canh-4" class="region" fill="#FFFFFF" stroke="#1B2A38" stroke-width="3" stroke-linejoin="round"/>
<ellipse cx="182.5" cy="276.6" rx="9" ry="9" id="r-hoa-nho-1-canh-5" data-region="hoa-nho-1-canh-5" class="region" fill="#FFFFFF" stroke="#1B2A38" stroke-width="3" stroke-linejoin="round"/>
<ellipse cx="193" cy="280" rx="7" ry="7" id="r-hoa-nho-1-nhuy" data-region="hoa-nho-1-nhuy" class="region" fill="#FFFFFF" stroke="#1B2A38" stroke-width="3" stroke-linejoin="round"/>
<ellipse cx="407" cy="239" rx="9" ry="9" id="r-hoa-nho-2-canh-1" data-region="hoa-nho-2-canh-1" class="region" fill="#FFFFFF" stroke="#1B2A38" stroke-width="3" stroke-linejoin="round"/>
<ellipse cx="417.5" cy="246.6" rx="9" ry="9" id="r-hoa-nho-2-canh-2" data-region="hoa-nho-2-canh-2" class="region" fill="#FFFFFF" stroke="#1B2A38" stroke-width="3" stroke-linejoin="round"/>
<ellipse cx="413.5" cy="258.9" rx="9" ry="9" id="r-hoa-nho-2-canh-3" data-region="hoa-nho-2-canh-3" class="region" fill="#FFFFFF" stroke="#1B2A38" stroke-width="3" stroke-linejoin="round"/>
<ellipse cx="400.5" cy="258.9" rx="9" ry="9" id="r-hoa-nho-2-canh-4" data-region="hoa-nho-2-canh-4" class="region" fill="#FFFFFF" stroke="#1B2A38" stroke-width="3" stroke-linejoin="round"/>
<ellipse cx="396.5" cy="246.6" rx="9" ry="9" id="r-hoa-nho-2-canh-5" data-region="hoa-nho-2-canh-5" class="region" fill="#FFFFFF" stroke="#1B2A38" stroke-width="3" stroke-linejoin="round"/>
<ellipse cx="407" cy="250" rx="7" ry="7" id="r-hoa-nho-2-nhuy" data-region="hoa-nho-2-nhuy" class="region" fill="#FFFFFF" stroke="#1B2A38" stroke-width="3" stroke-linejoin="round"/>
<ellipse cx="300" cy="169" rx="9" ry="9" id="r-hoa-nho-3-canh-1" data-region="hoa-nho-3-canh-1" class="region" fill="#FFFFFF" stroke="#1B2A38" stroke-width="3" stroke-linejoin="round"/>
<ellipse cx="310.5" cy="176.6" rx="9" ry="9" id="r-hoa-nho-3-canh-2" data-region="hoa-nho-3-canh-2" class="region" fill="#FFFFFF" stroke="#1B2A38" stroke-width="3" stroke-linejoin="round"/>
<ellipse cx="306.5" cy="188.9" rx="9" ry="9" id="r-hoa-nho-3-canh-3" data-region="hoa-nho-3-canh-3" class="region" fill="#FFFFFF" stroke="#1B2A38" stroke-width="3" stroke-linejoin="round"/>
<ellipse cx="293.5" cy="188.9" rx="9" ry="9" id="r-hoa-nho-3-canh-4" data-region="hoa-nho-3-canh-4" class="region" fill="#FFFFFF" stroke="#1B2A38" stroke-width="3" stroke-linejoin="round"/>
<ellipse cx="289.5" cy="176.6" rx="9" ry="9" id="r-hoa-nho-3-canh-5" data-region="hoa-nho-3-canh-5" class="region" fill="#FFFFFF" stroke="#1B2A38" stroke-width="3" stroke-linejoin="round"/>
<ellipse cx="300" cy="180" rx="7" ry="7" id="r-hoa-nho-3-nhuy" data-region="hoa-nho-3-nhuy" class="region" fill="#FFFFFF" stroke="#1B2A38" stroke-width="3" stroke-linejoin="round"/>
<ellipse cx="250" cy="319" rx="9" ry="9" id="r-hoa-nho-4-canh-1" data-region="hoa-nho-4-canh-1" class="region" fill="#FFFFFF" stroke="#1B2A38" stroke-width="3" stroke-linejoin="round"/>
<ellipse cx="260.5" cy="326.6" rx="9" ry="9" id="r-hoa-nho-4-canh-2" data-region="hoa-nho-4-canh-2" class="region" fill="#FFFFFF" stroke="#1B2A38" stroke-width="3" stroke-linejoin="round"/>
<ellipse cx="256.5" cy="338.9" rx="9" ry="9" id="r-hoa-nho-4-canh-3" data-region="hoa-nho-4-canh-3" class="region" fill="#FFFFFF" stroke="#1B2A38" stroke-width="3" stroke-linejoin="round"/>
<ellipse cx="243.5" cy="338.9" rx="9" ry="9" id="r-hoa-nho-4-canh-4" data-region="hoa-nho-4-canh-4" class="region" fill="#FFFFFF" stroke="#1B2A38" stroke-width="3" stroke-linejoin="round"/>
<ellipse cx="239.5" cy="326.6" rx="9" ry="9" id="r-hoa-nho-4-canh-5" data-region="hoa-nho-4-canh-5" class="region" fill="#FFFFFF" stroke="#1B2A38" stroke-width="3" stroke-linejoin="round"/>
<ellipse cx="250" cy="330" rx="7" ry="7" id="r-hoa-nho-4-nhuy" data-region="hoa-nho-4-nhuy" class="region" fill="#FFFFFF" stroke="#1B2A38" stroke-width="3" stroke-linejoin="round"/>
<ellipse cx="350" cy="359" rx="9" ry="9" id="r-hoa-nho-5-canh-1" data-region="hoa-nho-5-canh-1" class="region" fill="#FFFFFF" stroke="#1B2A38" stroke-width="3" stroke-linejoin="round"/>
<ellipse cx="360.5" cy="366.6" rx="9" ry="9" id="r-hoa-nho-5-canh-2" data-region="hoa-nho-5-canh-2" class="region" fill="#FFFFFF" stroke="#1B2A38" stroke-width="3" stroke-linejoin="round"/>
<ellipse cx="356.5" cy="378.9" rx="9" ry="9" id="r-hoa-nho-5-canh-3" data-region="hoa-nho-5-canh-3" class="region" fill="#FFFFFF" stroke="#1B2A38" stroke-width="3" stroke-linejoin="round"/>
<ellipse cx="343.5" cy="378.9" rx="9" ry="9" id="r-hoa-nho-5-canh-4" data-region="hoa-nho-5-canh-4" class="region" fill="#FFFFFF" stroke="#1B2A38" stroke-width="3" stroke-linejoin="round"/>
<ellipse cx="339.5" cy="366.6" rx="9" ry="9" id="r-hoa-nho-5-canh-5" data-region="hoa-nho-5-canh-5" class="region" fill="#FFFFFF" stroke="#1B2A38" stroke-width="3" stroke-linejoin="round"/>
<ellipse cx="350" cy="370" rx="7" ry="7" id="r-hoa-nho-5-nhuy" data-region="hoa-nho-5-nhuy" class="region" fill="#FFFFFF" stroke="#1B2A38" stroke-width="3" stroke-linejoin="round"/>
</g>
<g class="scene-front">

</g>
</svg>