<svg xmlns="http://www.w3.org/2000/svg" viewBox="0 0 600 600" data-picture="dau-tay-the-thao--truot-bang-nghe-thuat">
<g class="scene-back">
<rect x="0" y="0" width="600" height="600" rx="0" id="r-nen-troi" data-region="nen-troi" class="region" fill="#FFFFFF" stroke="#1B2A38" stroke-width="3" stroke-linejoin="round"/>

<path d="M 63.5 71.3 Q 50 71.3 53.6 60 Q 50.9 44.3 70.3 44.3 Q 74.8 29.4 91.4 33 Q 103.1 20.4 116.6 35.3 Q 136.4 32.1 133.7 51.9 Q 141.8 71.3 126.5 71.3 Z" id="r-may-2" data-region="may-2" class="region" fill="#FFFFFF" stroke="#1B2A38" stroke-width="3" stroke-linejoin="round"/>
<rect x="0" y="430" width="600" height="40" rx="0" id="r-thanh-chan-san" data-region="thanh-chan-san" class="region" fill="#FFFFFF" stroke="#1B2A38" stroke-width="3" stroke-linejoin="round"/>
<rect x="0" y="446" width="600" height="8" rx="0" id="r-vach-do" data-region="vach-do" class="region" fill="#FFFFFF" stroke="#1B2A38" stroke-width="3" stroke-linejoin="round"/>
<rect x="0" y="470" width="600" height="130" rx="0" id="r-nen-dat" data-region="nen-dat" class="region" fill="#FFFFFF" stroke="#1B2A38" stroke-width="3" stroke-linejoin="round"/>
<g class="deco" pointer-events="none"><path d="M 60 530 Q 200 500 300 530 M 360 560 Q 480 530 560 560" fill="none" stroke="#1B2A38" stroke-width="2" stroke-linecap="round" stroke-linejoin="round"/></g>
</g>
<g id="subject" class="subject anim-float" transform="translate(0 0) translate(300 440) scale(0.9) rotate(12) translate(-300 -440)">
<ellipse cx="179.2" cy="328" rx="12" ry="36" transform="rotate(40 179.2 328)" id="r-tay-trai" data-region="tay-trai" class="region" fill="#FFFFFF" stroke="#1B2A38" stroke-width="3" stroke-linejoin="round"/>
<ellipse cx="420.8" cy="328" rx="12" ry="36" transform="rotate(-40 420.8 328)" id="r-tay-phai" data-region="tay-phai" class="region" fill="#FFFFFF" stroke="#1B2A38" stroke-width="3" stroke-linejoin="round"/>
<rect x="256" y="450" width="16" height="46" rx="7" id="r-chan-trai" data-region="chan-trai" class="region" fill="#FFFFFF" stroke="#1B2A38" stroke-width="3" stroke-linejoin="round"/>
<rect x="328" y="450" width="16" height="46" rx="7" id="r-chan-phai" data-region="chan-phai" class="region" fill="#FFFFFF" stroke="#1B2A38" stroke-width="3" stroke-linejoin="round"/>
<ellipse cx="256" cy="498" rx="22" ry="12" id="r-giay-trai" data-region="giay-trai" class="region" fill="#FFFFFF" stroke="#1B2A38" stroke-width="3" stroke-linejoin="round"/>
<ellipse cx="344" cy="498" rx="22" ry="12" id="r-giay-phai" data-region="giay-phai" class="region" fill="#FFFFFF" stroke="#1B2A38" stroke-width="3" stroke-linejoin="round"/>
<path d="M 300 470 C 200 420 160 330 180 260 C 200 210 260 205 300 225 C 340 205 400 210 420 260 C 440 330 400 420 300 470 Z" id="r-qua-dau" data-region="qua-dau" class="region" fill="#FFFFFF" stroke="#1B2A38" stroke-width="3" stroke-linejoin="round"/>
<ellipse cx="225" cy="285" rx="5" ry="8" id="r-hat-1" data-region="hat-1" class="region" fill="#FFFFFF" stroke="#1B2A38" stroke-width="3" stroke-linejoin="round"/>
<ellipse cx="375" cy="285" rx="5" ry="8" id="r-hat-2" data-region="hat-2" class="region" fill="#FFFFFF" stroke="#1B2A38" stroke-width="3" stroke-linejoin="round"/>
<ellipse cx="212" cy="345" rx="5" ry="8" id="r-hat-3" data-region="hat-3" class="region" fill="#FFFFFF" stroke="#1B2A38" stroke-width="3" stroke-linejoin="round"/>
<ellipse cx="388" cy="345" rx="5" ry="8" id="r-hat-4" data-region="hat-4" class="region" fill="#FFFFFF" stroke="#1B2A38" stroke-width="3" stroke-linejoin="round"/>
<ellipse cx="250" cy="400" rx="5" ry="8" id="r-hat-5" data-region="hat-5" class="region" fill="#FFFFFF" stroke="#1B2A38" stroke-width="3" stroke-linejoin="round"/>
<ellipse cx="350" cy="400" rx="5" ry="8" id="r-hat-6" data-region="hat-6" class="region" fill="#FFFFFF" stroke="#1B2A38" stroke-width="3" stroke-linejoin="round"/>
<ellipse cx="300" cy="435" rx="5" ry="8" id="r-hat-7" data-region="hat-7" class="region" fill="#FFFFFF" stroke="#1B2A38" stroke-width="3" stroke-linejoin="round"/>
<polygon points="236,218 268,206 262,180 290,196 300,166 310,196 338,180 332,206 364,218 332,232 300,224 268,232" id="r-la-dau" data-region="la-dau" class="region" fill="#FFFFFF" stroke="#1B2A38" stroke-width="3" stroke-linejoin="round"/>
<rect x="294" y="146" width="12" height="24" rx="4" id="r-cuong" data-region="cuong" class="region" fill="#FFFFFF" stroke="#1B2A38" stroke-width="3" stroke-linejoin="round"/>
<g class="deco" pointer-events="none"><circle cx="279.2" cy="318" r="6.4" fill="#1B2A38"/></g>
<g class="deco" pointer-events="none"><circle cx="320.8" cy="318" r="6.4" fill="#1B2A38"/></g>
<g class="deco" pointer-events="none"><circle cx="281.2" cy="315.6" r="2.1" fill="#FFFFFF"/></g>
<g class="deco" pointer-events="none"><circle cx="322.8" cy="315.6" r="2.1" fill="#FFFFFF"/></g>
<ellipse cx="263.2" cy="334" rx="8.8" ry="5.6" id="r-ma-trai" data-region="ma-trai" class="region" fill="#FFFFFF" stroke="#1B2A38" stroke-width="3" stroke-linejoin="round"/>
<ellipse cx="336.8" cy="334" rx="8.8" ry="5.6" id="r-ma-phai" data-region="ma-phai" class="region" fill="#FFFFFF" stroke="#1B2A38" stroke-width="3" stroke-linejoin="round"/>
<g class="deco" pointer-events="none"><path d="M 288 342 Q 300 354.8 312 342" fill="none" stroke="#1B2A38" stroke-width="4.2" stroke-linecap="round" stroke-linejoin="round"/></g>
<rect x="230" y="486" width="50" height="26" rx="8" id="r-giay-truot-bang-trai" data-region="giay-truot-bang-trai" class="region" fill="#FFFFFF" stroke="#1B2A38" stroke-width="3" stroke-linejoin="round"/>
<rect x="320" y="486" width="50" height="26" rx="8" id="r-giay-truot-bang-phai" data-region="giay-truot-bang-phai" class="region" fill="#FFFFFF" stroke="#1B2A38" stroke-width="3" stroke-linejoin="round"/>
<polygon points="224,520.5 286,520.5 286,515.5 224,515.5" id="r-luoi-truot-trai" data-region="luoi-truot-trai" class="region" fill="#FFFFFF" stroke="#1B2A38" stroke-width="3" stroke-linejoin="round"/>
<polygon points="314,520.5 376,520.5 376,515.5 314,515.5" id="r-luoi-truot-phai" data-region="luoi-truot-phai" class="region" fill="#FFFFFF" stroke="#1B2A38" stroke-width="3" stroke-linejoin="round"/>
</g>
<g class="scene-front">
<ellipse cx="60" cy="80" rx="8" ry="8" id="r-bong-tuyet-1" data-region="bong-tuyet-1" class="region" fill="#FFFFFF" stroke="#1B2A38" stroke-width="3" stroke-linejoin="round"/>
<ellipse cx="150" cy="150" rx="8" ry="8" id="r-bong-tuyet-2" data-region="bong-tuyet-2" class="region" fill="#FFFFFF" stroke="#1B2A38" stroke-width="3" stroke-linejoin="round"/>
<ellipse cx="250" cy="60" rx="8" ry="8" id="r-bong-tuyet-3" data-region="bong-tuyet-3" class="region" fill="#FFFFFF" stroke="#1B2A38" stroke-width="3" stroke-linejoin="round"/>
<ellipse cx="360" cy="120" rx="8" ry="8" id="r-bong-tuyet-4" data-region="bong-tuyet-4" class="region" fill="#FFFFFF" stroke="#1B2A38" stroke-width="3" stroke-linejoin="round"/>
<ellipse cx="470" cy="60" rx="8" ry="8" id="r-bong-tuyet-5" data-region="bong-tuyet-5" class="region" fill="#FFFFFF" stroke="#1B2A38" stroke-width="3" stroke-linejoin="round"/>
<ellipse cx="550" cy="150" rx="8" ry="8" id="r-bong-tuyet-6" data-region="bong-tuyet-6" class="region" fill="#FFFFFF" stroke="#1B2A38" stroke-width="3" stroke-linejoin="round"/>
<ellipse cx="80" cy="250" rx="8" ry="8" id="r-bong-tuyet-7" data-region="bong-tuyet-7" class="region" fill="#FFFFFF" stroke="#1B2A38" stroke-width="3" stroke-linejoin="round"/>
<ellipse cx="520" cy="280" rx="8" ry="8" id="r-bong-tuyet-8" data-region="bong-tuyet-8" class="region" fill="#FFFFFF" stroke="#1B2A38" stroke-width="3" stroke-linejoin="round"/>
<ellipse cx="420" cy="220" rx="8" ry="8" id="r-bong-tuyet-9" data-region="bong-tuyet-9" class="region" fill="#FFFFFF" stroke="#1B2A38" stroke-width="3" stroke-linejoin="round"/>
<ellipse cx="180" cy="260" rx="8" ry="8" id="r-bong-tuyet-10" data-region="bong-tuyet-10" class="region" fill="#FFFFFF" stroke="#1B2A38" stroke-width="3" stroke-linejoin="round"/>
</g>
</svg>