<svg xmlns="http://www.w3.org/2000/svg" viewBox="0 0 600 600" data-picture="dau-tay-the-thao--yoga">
<g class="scene-back">
<rect x="0" y="0" width="600" height="600" rx="0" id="r-nen-troi" data-region="nen-troi" class="region" fill="#FFFFFF" stroke="#1B2A38" stroke-width="3" stroke-linejoin="round"/>
<ellipse cx="505" cy="110" rx="44" ry="44" id="r-mat-troi" data-region="mat-troi" class="region" fill="#FFFFFF" stroke="#1B2A38" stroke-width="3" stroke-linejoin="round"/>
<path d="M 56.5 93.8 Q 40 93.8 44.4 80 Q 41.1 60.8 64.8 60.8 Q 70.3 42.6 90.6 47 Q 104.9 31.6 121.4 49.8 Q 145.6 45.9 142.3 70.1 Q 152.2 93.8 133.5 93.8 Z" id="r-may-1" data-region="may-1" class="region" fill="#FFFFFF" stroke="#1B2A38" stroke-width="3" stroke-linejoin="round"/>
<rect x="0" y="400" width="600" height="80" rx="0" id="r-bien-xa" data-region="bien-xa" class="region" fill="#FFFFFF" stroke="#1B2A38" stroke-width="3" stroke-linejoin="round"/>
<ellipse cx="100" cy="400" rx="26" ry="8" id="r-buom-thuyen" data-region="buom-thuyen" class="region" fill="#FFFFFF" stroke="#1B2A38" stroke-width="3" stroke-linejoin="round"/>
<path d="M 0 480 Q 100 440 220 470 Q 340 500 460 455 Q 540 430 600 460 L 600 600 L 0 600 Z" id="r-nen-dat" data-region="nen-dat" class="region" fill="#FFFFFF" stroke="#1B2A38" stroke-width="3" stroke-linejoin="round"/>
<ellipse cx="80" cy="540" rx="16" ry="12" id="r-vo-so" data-region="vo-so" class="region" fill="#FFFFFF" stroke="#1B2A38" stroke-width="3" stroke-linejoin="round"/>
<polygon points="520,529 524.1,539.3 535.2,540.1 526.7,547.2 529.4,557.9 520,552 510.6,557.9 513.3,547.2 504.8,540.1 515.9,539.3" id="r-sao-bien-cat" data-region="sao-bien-cat" class="region" fill="#FFFFFF" stroke="#1B2A38" stroke-width="3" stroke-linejoin="round"/>
<ellipse cx="70" cy="504" rx="9" ry="9" id="r-hoa-nho-1-canh-1" data-region="hoa-nho-1-canh-1" class="region" fill="#FFFFFF" stroke="#1B2A38" stroke-width="3" stroke-linejoin="round"/>
<ellipse cx="80.5" cy="511.6" rx="9" ry="9" id="r-hoa-nho-1-canh-2" data-region="hoa-nho-1-canh-2" class="region" fill="#FFFFFF" stroke="#1B2A38" stroke-width="3" stroke-linejoin="round"/>
<ellipse cx="76.5" cy="523.9" rx="9" ry="9" id="r-hoa-nho-1-canh-3" data-region="hoa-nho-1-canh-3" class="region" fill="#FFFFFF" stroke="#1B2A38" stroke-width="3" stroke-linejoin="round"/>
<ellipse cx="63.5" cy="523.9" rx="9" ry="9" id="r-hoa-nho-1-canh-4" data-region="hoa-nho-1-canh-4" class="region" fill="#FFFFFF" stroke="#1B2A38" stroke-width="3" stroke-linejoin="round"/>
<ellipse cx="59.5" cy="511.6" rx="9" ry="9" id="r-hoa-nho-1-canh-5" data-region="hoa-nho-1-canh-5" class="region" fill="#FFFFFF" stroke="#1B2A38" stroke-width="3" stroke-linejoin="round"/>
<ellipse cx="70" cy="515" rx="7" ry="7" id="r-hoa-nho-1-nhuy" data-region="hoa-nho-1-nhuy" class="region" fill="#FFFFFF" stroke="#1B2A38" stroke-width="3" stroke-linejoin="round"/>
<ellipse cx="150" cy="537" rx="9" ry="9" id="r-hoa-nho-2-canh-1" data-region="hoa-nho-2-canh-1" class="region" fill="#FFFFFF" stroke="#1B2A38" stroke-width="3" stroke-linejoin="round"/>
<ellipse cx="160.5" cy="544.6" rx="9" ry="9" id="r-hoa-nho-2-canh-2" data-region="hoa-nho-2-canh-2" class="region" fill="#FFFFFF" stroke="#1B2A38" stroke-width="3" stroke-linejoin="round"/>
<ellipse cx="156.5" cy="556.9" rx="9" ry="9" id="r-hoa-nho-2-canh-3" data-region="hoa-nho-2-canh-3" class="region" fill="#FFFFFF" stroke="#1B2A38" stroke-width="3" stroke-linejoin="round"/>
<ellipse cx="143.5" cy="556.9" rx="9" ry="9" id="r-hoa-nho-2-canh-4" data-region="hoa-nho-2-canh-4" class="region" fill="#FFFFFF" stroke="#1B2A38" stroke-width="3" stroke-linejoin="round"/>
<ellipse cx="139.5" cy="544.6" rx="9" ry="9" id="r-hoa-nho-2-canh-5" data-region="hoa-nho-2-canh-5" class="region" fill="#FFFFFF" stroke="#1B2A38" stroke-width="3" stroke-linejoin="round"/>
<ellipse cx="150" cy="548" rx="7" ry="7" id="r-hoa-nho-2-nhuy" data-region="hoa-nho-2-nhuy" class="region" fill="#FFFFFF" stroke="#1B2A38" stroke-width="3" stroke-linejoin="round"/>
<ellipse cx="455" cy="537" rx="9" ry="9" id="r-hoa-nho-3-canh-1" data-region="hoa-nho-3-canh-1" class="region" fill="#FFFFFF" stroke="#1B2A38" stroke-width="3" stroke-linejoin="round"/>
<ellipse cx="465.5" cy="544.6" rx="9" ry="9" id="r-hoa-nho-3-canh-2" data-region="hoa-nho-3-canh-2" class="region" fill="#FFFFFF" stroke="#1B2A38" stroke-width="3" stroke-linejoin="round"/>
<ellipse cx="461.5" cy="556.9" rx="9" ry="9" id="r-hoa-nho-3-canh-3" data-region="hoa-nho-3-canh-3" class="region" fill="#FFFFFF" stroke="#1B2A38" stroke-width="3" stroke-linejoin="round"/>
<ellipse cx="448.5" cy="556.9" rx="9" ry="9" id="r-hoa-nho-3-canh-4" data-region="hoa-nho-3-canh-4" class="region" fill="#FFFFFF" stroke="#1B2A38" stroke-width="3" stroke-linejoin="round"/>
<ellipse cx="444.5" cy="544.6" rx="9" ry="9" id="r-hoa-nho-3-canh-5" data-region="hoa-nho-3-canh-5" class="region" fill="#FFFFFF" stroke="#1B2A38" stroke-width="3" stroke-linejoin="round"/>
<ellipse cx="455" cy="548" rx="7" ry="7" id="r-hoa-nho-3-nhuy" data-region="hoa-nho-3-nhuy" class="region" fill="#FFFFFF" stroke="#1B2A38" stroke-width="3" stroke-linejoin="round"/>
<ellipse cx="535" cy="501" rx="9" ry="9" id="r-hoa-nho-4-canh-1" data-region="hoa-nho-4-canh-1" class="region" fill="#FFFFFF" stroke="#1B2A38" stroke-width="3" stroke-linejoin="round"/>
<ellipse cx="545.5" cy="508.6" rx="9" ry="9" id="r-hoa-nho-4-canh-2" data-region="hoa-nho-4-canh-2" class="region" fill="#FFFFFF" stroke="#1B2A38" stroke-width="3" stroke-linejoin="round"/>
<ellipse cx="541.5" cy="520.9" rx="9" ry="9" id="r-hoa-nho-4-canh-3" data-region="hoa-nho-4-canh-3" class="region" fill="#FFFFFF" stroke="#1B2A38" stroke-width="3" stroke-linejoin="round"/>
<ellipse cx="528.5" cy="520.9" rx="9" ry="9" id="r-hoa-nho-4-canh-4" data-region="hoa-nho-4-canh-4" class="region" fill="#FFFFFF" stroke="#1B2A38" stroke-width="3" stroke-linejoin="round"/>
<ellipse cx="524.5" cy="508.6" rx="9" ry="9" id="r-hoa-nho-4-canh-5" data-region="hoa-nho-4-canh-5" class="region" fill="#FFFFFF" stroke="#1B2A38" stroke-width="3" stroke-linejoin="round"/>
<ellipse cx="535" cy="512" rx="7" ry="7" id="r-hoa-nho-4-nhuy" data-region="hoa-nho-4-nhuy" class="region" fill="#FFFFFF" stroke="#1B2A38" stroke-width="3" stroke-linejoin="round"/>
<rect x="110" y="490" width="380" height="24" rx="10" id="r-tham-yoga" data-region="tham-yoga" class="region" fill="#FFFFFF" stroke="#1B2A38" stroke-width="3" stroke-linejoin="round"/>
</g>
<g id="subject" class="subject anim-float" transform="translate(0 -20) translate(300 460) scale(0.9) rotate(0) translate(-300 -460)">
<ellipse cx="179.2" cy="328" rx="12" ry="36" transform="rotate(40 179.2 328)" id="r-tay-trai" data-region="tay-trai" class="region" fill="#FFFFFF" stroke="#1B2A38" stroke-width="3" stroke-linejoin="round"/>
<ellipse cx="420.8" cy="328" rx="12" ry="36" transform="rotate(-40 420.8 328)" id="r-tay-phai" data-region="tay-phai" class="region" fill="#FFFFFF" stroke="#1B2A38" stroke-width="3" stroke-linejoin="round"/>
<rect x="256" y="450" width="16" height="46" rx="7" id="r-chan-trai" data-region="chan-trai" class="region" fill="#FFFFFF" stroke="#1B2A38" stroke-width="3" stroke-linejoin="round"/>
<rect x="328" y="450" width="16" height="46" rx="7" id="r-chan-phai" data-region="chan-phai" class="region" fill="#FFFFFF" stroke="#1B2A38" stroke-width="3" stroke-linejoin="round"/>
<ellipse cx="256" cy="498" rx="22" ry="12" id="r-giay-trai" data-region="giay-trai" class="region" fill="#FFFFFF" stroke="#1B2A38" stroke-width="3" stroke-linejoin="round"/>
<ellipse cx="344" cy="498" rx="22" ry="12" id="r-giay-phai" data-region="giay-phai" class="region" fill="#FFFFFF" stroke="#1B2A38" stroke-width="3" stroke-linejoin="round"/>
<path d="M 300 470 C 200 420 160 330 180 260 C 200 210 260 205 300 225 C 340 205 400 210 420 260 C 440 330 400 420 300 470 Z" id="r-qua-dau" data-region="qua-dau" class="region" fill="#FFFFFF" stroke="#1B2A38" stroke-width="3" stroke-linejoin="round"/>
<ellipse cx="225" cy="285" rx="5" ry="8" id="r-hat-1" data-region="hat-1" class="region" fill="#FFFFFF" stroke="#1B2A38" stroke-width="3" stroke-linejoin="round"/>
<ellipse cx="375" cy="285" rx="5" ry="8" id="r-hat-2" data-region="hat-2" class="region" fill="#FFFFFF" stroke="#1B2A38" stroke-width="3" stroke-linejoin="round"/>
<ellipse cx="212" cy="345" rx="5" ry="8" id="r-hat-3" data-region="hat-3" class="region" fill="#FFFFFF" stroke="#1B2A38" stroke-width="3" stroke-linejoin="round"/>
<ellipse cx="388" cy="345" rx="5" ry="8" id="r-hat-4" data-region="hat-4" class="region" fill="#FFFFFF" stroke="#1B2A38" stroke-width="3" stroke-linejoin="round"/>
<ellipse cx="250" cy="400" rx="5" ry="8" id="r-hat-5" data-region="hat-5" class="region" fill="#FFFFFF" stroke="#1B2A38" stroke-width="3" stroke-linejoin="round"/>
<ellipse cx="350" cy="400" rx="5" ry="8" id="r-hat-6" data-region="hat-6" class="region" fill="#FFFFFF" stroke="#1B2A38" stroke-width="3" stroke-linejoin="round"/>
<ellipse cx="300" cy="435" rx="5" ry="8" id="r-hat-7" data-region="hat-7" class="region" fill="#FFFFFF" stroke="#1B2A38" stroke-width="3" stroke-linejoin="round"/>
<polygon points="236,218 268,206 262,180 290,196 300,166 310,196 338,180 332,206 364,218 332,232 300,224 268,232" id="r-la-dau" data-region="la-dau" class="region" fill="#FFFFFF" stroke="#1B2A38" stroke-width="3" stroke-linejoin="round"/>
<rect x="294" y="146" width="12" height="24" rx="4" id="r-cuong" data-region="cuong" class="region" fill="#FFFFFF" stroke="#1B2A38" stroke-width="3" stroke-linejoin="round"/>
<g class="deco" pointer-events="none"><path d="M 271.2 316.4 Q 279.2 324.4 287.2 316.4" fill="none" stroke="#1B2A38" stroke-width="3.8000000000000003" stroke-linecap="round" stroke-linejoin="round"/></g>
<g class="deco" pointer-events="none"><path d="M 312.8 316.4 Q 320.8 324.4 328.8 316.4" fill="none" stroke="#1B2A38" stroke-width="3.8000000000000003" stroke-linecap="round" stroke-linejoin="round"/></g>
<ellipse cx="263.2" cy="334" rx="8.8" ry="5.6" id="r-ma-trai" data-region="ma-trai" class="region" fill="#FFFFFF" stroke="#1B2A38" stroke-width="3" stroke-linejoin="round"/>
<ellipse cx="336.8" cy="334" rx="8.8" ry="5.6" id="r-ma-phai" data-region="ma-phai" class="region" fill="#FFFFFF" stroke="#1B2A38" stroke-width="3" stroke-linejoin="round"/>
<ellipse cx="300" cy="345.2" rx="4" ry="4.8" id="r-mieng" data-region="mieng" class="region" fill="#FFFFFF" stroke="#1B2A38" stroke-width="3" stroke-linejoin="round"/>
</g>
<g class="scene-front">
<ellipse cx="77.4" cy="321.2" rx="17.6" ry="22" transform="rotate(-25 77.4 321.2)" id="r-buom-canh-tren-trai" data-region="buom-canh-tren-trai" class="region" fill="#FFFFFF" stroke="#1B2A38" stroke-width="3" stroke-linejoin="round"/>
<ellipse cx="112.6" cy="321.2" rx="17.6" ry="22" transform="rotate(25 112.6 321.2)" id="r-buom-canh-tren-phai" data-region="buom-canh-tren-phai" class="region" fill="#FFFFFF" stroke="#1B2A38" stroke-width="3" stroke-linejoin="round"/>
<ellipse cx="81.8" cy="345.4" rx="11" ry="13.2" transform="rotate(20 81.8 345.4)" id="r-buom-canh-duoi-trai" data-region="buom-canh-duoi-trai" class="region" fill="#FFFFFF" stroke="#1B2A38" stroke-width="3" stroke-linejoin="round"/>
<ellipse cx="108.2" cy="345.4" rx="11" ry="13.2" transform="rotate(-20 108.2 345.4)" id="r-buom-canh-duoi-phai" data-region="buom-canh-duoi-phai" class="region" fill="#FFFFFF" stroke="#1B2A38" stroke-width="3" stroke-linejoin="round"/>
<g class="deco" pointer-events="none"><path d="M 95 312.4 L 95 354.2" fill="none" stroke="#1B2A38" stroke-width="5" stroke-linecap="round" stroke-linejoin="round"/></g>
<g class="deco" pointer-events="none"><path d="M 95 312.4 Q 88.4 297 81.8 294.8" fill="none" stroke="#1B2A38" stroke-width="2.5" stroke-linecap="round" stroke-linejoin="round"/></g>
<g class="deco" pointer-events="none"><path d="M 95 312.4 Q 101.6 297 108.2 294.8" fill="none" stroke="#1B2A38" stroke-width="2.5" stroke-linecap="round" stroke-linejoin="round"/></g>
<ellipse cx="497.2" cy="293.6" rx="12.8" ry="16" transform="rotate(-25 497.2 293.6)" id="r-buom-nho-canh-tren-trai" data-region="buom-nho-canh-tren-trai" class="region" fill="#FFFFFF" stroke="#1B2A38" stroke-width="3" stroke-linejoin="round"/>
<ellipse cx="522.8" cy="293.6" rx="12.8" ry="16" transform="rotate(25 522.8 293.6)" id="r-buom-nho-canh-tren-phai" data-region="buom-nho-canh-tren-phai" class="region" fill="#FFFFFF" stroke="#1B2A38" stroke-width="3" stroke-linejoin="round"/>
<ellipse cx="500.4" cy="311.2" rx="8" ry="9.6" transform="rotate(20 500.4 311.2)" id="r-buom-nho-canh-duoi-trai" data-region="buom-nho-canh-duoi-trai" class="region" fill="#FFFFFF" stroke="#1B2A38" stroke-width="3" stroke-linejoin="round"/>
<ellipse cx="519.6" cy="311.2" rx="8" ry="9.6" transform="rotate(-20 519.6 311.2)" id="r-buom-nho-canh-duoi-phai" data-region="buom-nho-canh-duoi-phai" class="region" fill="#FFFFFF" stroke="#1B2A38" stroke-width="3" stroke-linejoin="round"/>
<g class="deco" pointer-events="none"><path d="M 510 287.2 L 510 317.6" fill="none" stroke="#1B2A38" stroke-width="5" stroke-linecap="round" stroke-linejoin="round"/></g>
<g class="deco" pointer-events="none"><path d="M 510 287.2 Q 505.2 276 500.4 274.4" fill="none" stroke="#1B2A38" stroke-width="2.5" stroke-linecap="round" stroke-linejoin="round"/></g>
<g class="deco" pointer-events="none"><path d="M 510 287.2 Q 514.8 276 519.6 274.4" fill="none" stroke="#1B2A38" stroke-width="2.5" stroke-linecap="round" stroke-linejoin="round"/></g>
<polygon points="120,184 124,196 136,200 124,204 120,216 116,204 104,200 116,196" id="r-thu-gian-1" data-region="thu-gian-1" class="region" fill="#FFFFFF" stroke="#1B2A38" stroke-width="3" stroke-linejoin="round"/>
<polygon points="480,184 484,196 496,200 484,204 480,216 476,204 464,200 476,196" id="r-thu-gian-2" data-region="thu-gian-2" class="region" fill="#FFFFFF" stroke="#1B2A38" stroke-width="3" stroke-linejoin="round"/>
</g>
</svg>