<svg xmlns="http://www.w3.org/2000/svg" viewBox="0 0 600 600" data-picture="sao-tho--truot-patin">
<g class="scene-back">
<rect x="0" y="0" width="600" height="600" rx="0" id="r-nen-troi" data-region="nen-troi" class="region" fill="#FFFFFF" stroke="#1B2A38" stroke-width="3" stroke-linejoin="round"/>
<ellipse cx="40" cy="180" rx="22" ry="14" id="r-da-vanh-dai-1" data-region="da-vanh-dai-1" class="region" fill="#FFFFFF" stroke="#1B2A38" stroke-width="3" stroke-linejoin="round"/>
<ellipse cx="144" cy="220" rx="18" ry="14" transform="rotate(20 144 220)" id="r-da-vanh-dai-2" data-region="da-vanh-dai-2" class="region" fill="#FFFFFF" stroke="#1B2A38" stroke-width="3" stroke-linejoin="round"/>
<ellipse cx="248" cy="180" rx="14" ry="14" transform="rotate(40 248 180)" id="r-da-vanh-dai-3" data-region="da-vanh-dai-3" class="region" fill="#FFFFFF" stroke="#1B2A38" stroke-width="3" stroke-linejoin="round"/>
<ellipse cx="352" cy="220" rx="22" ry="14" transform="rotate(60 352 220)" id="r-da-vanh-dai-4" data-region="da-vanh-dai-4" class="region" fill="#FFFFFF" stroke="#1B2A38" stroke-width="3" stroke-linejoin="round"/>
<ellipse cx="456" cy="180" rx="18" ry="14" transform="rotate(80 456 180)" id="r-da-vanh-dai-5" data-region="da-vanh-dai-5" class="region" fill="#FFFFFF" stroke="#1B2A38" stroke-width="3" stroke-linejoin="round"/>
<ellipse cx="560" cy="220" rx="14" ry="14" transform="rotate(100 560 220)" id="r-da-vanh-dai-6" data-region="da-vanh-dai-6" class="region" fill="#FFFFFF" stroke="#1B2A38" stroke-width="3" stroke-linejoin="round"/>
<rect x="0" y="470" width="600" height="130" rx="0" id="r-nen-dat" data-region="nen-dat" class="region" fill="#FFFFFF" stroke="#1B2A38" stroke-width="3" stroke-linejoin="round"/>
</g>
<g id="subject" class="subject anim-float" transform="translate(0 -20) translate(300 440) scale(0.8) rotate(0) translate(-300 -440)">
<ellipse cx="104.7" cy="320" rx="12" ry="36" transform="rotate(40 104.7 320)" id="r-tay-trai" data-region="tay-trai" class="region" fill="#FFFFFF" stroke="#1B2A38" stroke-width="3" stroke-linejoin="round"/>
<ellipse cx="495.7" cy="320" rx="12" ry="36" transform="rotate(-40 495.7 320)" id="r-tay-phai" data-region="tay-phai" class="region" fill="#FFFFFF" stroke="#1B2A38" stroke-width="3" stroke-linejoin="round"/>
<rect x="256.2" y="395" width="16" height="46" rx="7" id="r-chan-trai" data-region="chan-trai" class="region" fill="#FFFFFF" stroke="#1B2A38" stroke-width="3" stroke-linejoin="round"/>
<rect x="328.2" y="395" width="16" height="46" rx="7" id="r-chan-phai" data-region="chan-phai" class="region" fill="#FFFFFF" stroke="#1B2A38" stroke-width="3" stroke-linejoin="round"/>
<ellipse cx="256.2" cy="443" rx="22" ry="12" id="r-giay-trai" data-region="giay-trai" class="region" fill="#FFFFFF" stroke="#1B2A38" stroke-width="3" stroke-linejoin="round"/>
<ellipse cx="344.2" cy="443" rx="22" ry="12" id="r-giay-phai" data-region="giay-phai" class="region" fill="#FFFFFF" stroke="#1B2A38" stroke-width="3" stroke-linejoin="round"/>
<ellipse cx="300" cy="310" rx="200" ry="54" transform="rotate(-10 300 310)" id="r-vanh-sao-tho-sau" data-region="vanh-sao-tho-sau" class="region" fill="#FFFFFF" stroke="#1B2A38" stroke-width="3" stroke-linejoin="round"/>
<ellipse cx="300" cy="300" rx="115" ry="115" id="r-than-sao-tho" data-region="than-sao-tho" class="region" fill="#FFFFFF" stroke="#1B2A38" stroke-width="3" stroke-linejoin="round"/>
<path d="M 196 250 Q 300 230 404 250 Q 410 268 412 282 Q 300 262 190 282 Q 190 266 196 250 Z" id="r-soc-sao-tho-1" data-region="soc-sao-tho-1" class="region" fill="#FFFFFF" stroke="#1B2A38" stroke-width="3" stroke-linejoin="round"/>
<path d="M 103 344 Q 300 420 497 276 Q 505 300 490 316 Q 300 450 110 372 Q 96 360 103 344 Z" id="r-vanh-sao-tho-truoc" data-region="vanh-sao-tho-truoc" class="region" fill="#FFFFFF" stroke="#1B2A38" stroke-width="3" stroke-linejoin="round"/>
<g class="deco" pointer-events="none"><circle cx="276.6" cy="318" r="7.2" fill="#1B2A38"/></g>
<g class="deco" pointer-events="none"><circle cx="323.4" cy="318" r="7.2" fill="#1B2A38"/></g>
<g class="deco" pointer-events="none"><circle cx="278.9" cy="315.3" r="2.3" fill="#FFFFFF"/></g>
<g class="deco" pointer-events="none"><circle cx="325.7" cy="315.3" r="2.3" fill="#FFFFFF"/></g>
<ellipse cx="258.6" cy="336" rx="9.9" ry="6.3" id="r-ma-trai" data-region="ma-trai" class="region" fill="#FFFFFF" stroke="#1B2A38" stroke-width="3" stroke-linejoin="round"/>
<ellipse cx="341.4" cy="336" rx="9.9" ry="6.3" id="r-ma-phai" data-region="ma-phai" class="region" fill="#FFFFFF" stroke="#1B2A38" stroke-width="3" stroke-linejoin="round"/>
<g class="deco" pointer-events="none"><path d="M 286.5 345 Q 300 359.4 313.5 345" fill="none" stroke="#1B2A38" stroke-width="4.6" stroke-linecap="round" stroke-linejoin="round"/></g>
<rect x="226.2" y="427" width="60" height="28" rx="10" id="r-giay-patin-trai" data-region="giay-patin-trai" class="region" fill="#FFFFFF" stroke="#1B2A38" stroke-width="3" stroke-linejoin="round"/>
<ellipse cx="238.2" cy="463" rx="9" ry="9" id="r-giay-patin-trai-banh-1" data-region="giay-patin-trai-banh-1" class="region" fill="#FFFFFF" stroke="#1B2A38" stroke-width="3" stroke-linejoin="round"/>
<ellipse cx="274.2" cy="463" rx="9" ry="9" id="r-giay-patin-trai-banh-2" data-region="giay-patin-trai-banh-2" class="region" fill="#FFFFFF" stroke="#1B2A38" stroke-width="3" stroke-linejoin="round"/>
<rect x="314.2" y="427" width="60" height="28" rx="10" id="r-giay-patin-phai" data-region="giay-patin-phai" class="region" fill="#FFFFFF" stroke="#1B2A38" stroke-width="3" stroke-linejoin="round"/>
<ellipse cx="326.2" cy="463" rx="9" ry="9" id="r-giay-patin-phai-banh-1" data-region="giay-patin-phai-banh-1" class="region" fill="#FFFFFF" stroke="#1B2A38" stroke-width="3" stroke-linejoin="round"/>
<ellipse cx="362.2" cy="463" rx="9" ry="9" id="r-giay-patin-phai-banh-2" data-region="giay-patin-phai-banh-2" class="region" fill="#FFFFFF" stroke="#1B2A38" stroke-width="3" stroke-linejoin="round"/>
</g>
<g class="scene-front">
<g class="deco" pointer-events="none"><path d="M 110 280 L 60 280" fill="none" stroke="#1B2A38" stroke-width="5" stroke-linecap="round" stroke-linejoin="round"/></g>
<g class="deco" pointer-events="none"><path d="M 120 330 L 50 330" fill="none" stroke="#1B2A38" stroke-width="5" stroke-linecap="round" stroke-linejoin="round"/></g>
<g class="deco" pointer-events="none"><path d="M 110 380 L 60 380" fill="none" stroke="#1B2A38" stroke-width="5" stroke-linecap="round" stroke-linejoin="round"/></g>
<g class="deco" pointer-events="none"><path d="M 490 300 L 540 300" fill="none" stroke="#1B2A38" stroke-width="5" stroke-linecap="round" stroke-linejoin="round"/></g>
<g class="deco" pointer-events="none"><path d="M 495 350 L 555 350" fill="none" stroke="#1B2A38" stroke-width="5" stroke-linecap="round" stroke-linejoin="round"/></g>
</g>
</svg>