<svg xmlns="http://www.w3.org/2000/svg" viewBox="0 0 600 600" data-picture="meo--ngu-ngon">
<g class="scene-back">
<rect x="0" y="0" width="600" height="600" rx="0" id="r-nen-troi" data-region="nen-troi" class="region" fill="#FFFFFF" stroke="#1B2A38" stroke-width="3" stroke-linejoin="round"/>
<path d="M 490 50 C 412 56 412 164 490 170 C 452 146 452 76 490 50 Z" id="r-mat-trang" data-region="mat-trang" class="region" fill="#FFFFFF" stroke="#1B2A38" stroke-width="3" stroke-linejoin="round"/>
<polygon points="80,55 84.1,64.3 94.3,65.4 86.7,72.2 88.8,82.1 80,77 71.2,82.1 73.3,72.2 65.7,65.4 75.9,64.3" id="r-ngoi-sao-1" data-region="ngoi-sao-1" class="region" fill="#FFFFFF" stroke="#1B2A38" stroke-width="3" stroke-linejoin="round"/>
<polygon points="190,115 194.1,124.3 204.3,125.4 196.7,132.2 198.8,142.1 190,137 181.2,142.1 183.3,132.2 175.7,125.4 185.9,124.3" id="r-ngoi-sao-2" data-region="ngoi-sao-2" class="region" fill="#FFFFFF" stroke="#1B2A38" stroke-width="3" stroke-linejoin="round"/>
<polygon points="350,45 354.1,54.3 364.3,55.4 356.7,62.2 358.8,72.1 350,67 341.2,72.1 343.3,62.2 335.7,55.4 345.9,54.3" id="r-ngoi-sao-3" data-region="ngoi-sao-3" class="region" fill="#FFFFFF" stroke="#1B2A38" stroke-width="3" stroke-linejoin="round"/>
<polygon points="560,215 564.1,224.3 574.3,225.4 566.7,232.2 568.8,242.1 560,237 551.2,242.1 553.3,232.2 545.7,225.4 555.9,224.3" id="r-ngoi-sao-4" data-region="ngoi-sao-4" class="region" fill="#FFFFFF" stroke="#1B2A38" stroke-width="3" stroke-linejoin="round"/>
<polygon points="50,225 54.1,234.3 64.3,235.4 56.7,242.2 58.8,252.1 50,247 41.2,252.1 43.3,242.2 35.7,235.4 45.9,234.3" id="r-ngoi-sao-5" data-region="ngoi-sao-5" class="region" fill="#FFFFFF" stroke="#1B2A38" stroke-width="3" stroke-linejoin="round"/>
<path d="M 0 470 Q 150 440 300 465 Q 450 490 600 455 L 600 600 L 0 600 Z" id="r-nen-dat" data-region="nen-dat" class="region" fill="#FFFFFF" stroke="#1B2A38" stroke-width="3" stroke-linejoin="round"/>
</g>
<g id="subject" class="subject anim-bounce">
<path d="M 380 440 C 470 440 485 350 445 318 C 434 310 420 322 428 334 C 452 366 440 418 380 418 Z" id="r-duoi" data-region="duoi" class="region" fill="#FFFFFF" stroke="#1B2A38" stroke-width="3" stroke-linejoin="round"/>
<ellipse cx="300" cy="410" rx="90" ry="75" id="r-than" data-region="than" class="region" fill="#FFFFFF" stroke="#1B2A38" stroke-width="3" stroke-linejoin="round"/>
<ellipse cx="300" cy="425" rx="52" ry="48" id="r-bung" data-region="bung" class="region" fill="#FFFFFF" stroke="#1B2A38" stroke-width="3" stroke-linejoin="round"/>
<ellipse cx="262" cy="478" rx="26" ry="16" id="r-chan-trai" data-region="chan-trai" class="region" fill="#FFFFFF" stroke="#1B2A38" stroke-width="3" stroke-linejoin="round"/>
<ellipse cx="338" cy="478" rx="26" ry="16" id="r-chan-phai" data-region="chan-phai" class="region" fill="#FFFFFF" stroke="#1B2A38" stroke-width="3" stroke-linejoin="round"/>
<polygon points="226,222 236,140 288,188" id="r-tai-trai" data-region="tai-trai" class="region" fill="#FFFFFF" stroke="#1B2A38" stroke-width="3" stroke-linejoin="round"/>
<polygon points="240,204 245,162 272,190" id="r-trong-tai-trai" data-region="trong-tai-trai" class="region" fill="#FFFFFF" stroke="#1B2A38" stroke-width="3" stroke-linejoin="round"/>
<polygon points="374,222 364,140 312,188" id="r-tai-phai" data-region="tai-phai" class="region" fill="#FFFFFF" stroke="#1B2A38" stroke-width="3" stroke-linejoin="round"/>
<polygon points="360,204 355,162 328,190" id="r-trong-tai-phai" data-region="trong-tai-phai" class="region" fill="#FFFFFF" stroke="#1B2A38" stroke-width="3" stroke-linejoin="round"/>
<ellipse cx="300" cy="255" rx="80" ry="80" id="r-dau" data-region="dau" class="region" fill="#FFFFFF" stroke="#1B2A38" stroke-width="3" stroke-linejoin="round"/>
<path d="M 278 180 L 300 208 L 322 180 Q 300 174 278 180 Z" id="r-soc-tran" data-region="soc-tran" class="region" fill="#FFFFFF" stroke="#1B2A38" stroke-width="3" stroke-linejoin="round"/>
<ellipse cx="300" cy="282" rx="32" ry="22" id="r-mom" data-region="mom" class="region" fill="#FFFFFF" stroke="#1B2A38" stroke-width="3" stroke-linejoin="round"/>
<polygon points="292,258 308,258 300,267" id="r-mui" data-region="mui" class="region" fill="#FFFFFF" stroke="#1B2A38" stroke-width="3" stroke-linejoin="round"/>
<g class="deco" pointer-events="none"><path d="M 250 282 L 205 274 M 250 292 L 205 296 M 350 282 L 395 274 M 350 292 L 395 296" fill="none" stroke="#1B2A38" stroke-width="3" stroke-linecap="round" stroke-linejoin="round"/></g>
<g class="deco" pointer-events="none"><path d="M 264 243 Q 274 253 284 243" fill="none" stroke="#1B2A38" stroke-width="4.5" stroke-linecap="round" stroke-linejoin="round"/></g>
<g class="deco" pointer-events="none"><path d="M 316 243 Q 326 253 336 243" fill="none" stroke="#1B2A38" stroke-width="4.5" stroke-linecap="round" stroke-linejoin="round"/></g>
<ellipse cx="254" cy="265" rx="11" ry="7" id="r-ma-trai" data-region="ma-trai" class="region" fill="#FFFFFF" stroke="#1B2A38" stroke-width="3" stroke-linejoin="round"/>
<ellipse cx="346" cy="265" rx="11" ry="7" id="r-ma-phai" data-region="ma-phai" class="region" fill="#FFFFFF" stroke="#1B2A38" stroke-width="3" stroke-linejoin="round"/>
<ellipse cx="300" cy="279" rx="5" ry="6" id="r-mieng" data-region="mieng" class="region" fill="#FFFFFF" stroke="#1B2A38" stroke-width="3" stroke-linejoin="round"/>
<g class="deco" pointer-events="none"><text x="370" y="170" font-family="Baloo 2, Nunito, sans-serif" font-weight="800" font-size="40" fill="#1B2A38" pointer-events="none">Z<tspan font-size="30" dy="-18">z</tspan><tspan font-size="22" dy="-14">z</tspan></text></g>
</g>
<g class="scene-front">

</g>
</svg>