<svg xmlns="http://www.w3.org/2000/svg" viewBox="0 0 600 600" data-picture="kem-oc-que--dau-bep-hoang-gia">
<g class="scene-back">
<rect x="0" y="0" width="600" height="600" rx="0" id="r-nen-troi" data-region="nen-troi" class="region" fill="#FFFFFF" stroke="#1B2A38" stroke-width="3" stroke-linejoin="round"/>
<path d="M 57.5 128.8 Q 35 128.8 41 110 Q 36.5 83.8 68.8 83.8 Q 76.3 59 104 65 Q 123.5 44 146 68.8 Q 179 63.5 174.5 96.5 Q 188 128.8 162.5 128.8 Z" id="r-may-1" data-region="may-1" class="region" fill="#FFFFFF" stroke="#1B2A38" stroke-width="3" stroke-linejoin="round"/>
<path d="M 288 85 Q 270 85 274.8 70 Q 271.2 49 297 49 Q 303 29.2 325.2 34 Q 340.8 17.2 358.8 37 Q 385.2 32.8 381.6 59.2 Q 392.4 85 372 85 Z" id="r-may-2" data-region="may-2" class="region" fill="#FFFFFF" stroke="#1B2A38" stroke-width="3" stroke-linejoin="round"/>
<path d="M 0 470 Q 150 440 300 465 Q 450 490 600 455 L 600 600 L 0 600 Z" id="r-nen-dat" data-region="nen-dat" class="region" fill="#FFFFFF" stroke="#1B2A38" stroke-width="3" stroke-linejoin="round"/>
</g>
<g id="subject" class="subject anim-float">
<polygon points="228,300 372,300 300,488" id="r-oc-que" data-region="oc-que" class="region" fill="#FFFFFF" stroke="#1B2A38" stroke-width="3" stroke-linejoin="round"/>
<g class="deco" pointer-events="none"><path d="M 250 330 L 342 318 M 262 362 L 332 352 M 274 396 L 322 388 M 250 312 L 300 440 M 300 312 L 332 392" fill="none" stroke="#1B2A38" stroke-width="3" stroke-linecap="round" stroke-linejoin="round"/></g>
<ellipse cx="300" cy="208" rx="60" ry="60" id="r-vien-kem" data-region="vien-kem" class="region" fill="#FFFFFF" stroke="#1B2A38" stroke-width="3" stroke-linejoin="round"/>
<ellipse cx="300" cy="282" rx="82" ry="82" id="r-vien-kem-duoi" data-region="vien-kem-duoi" class="region" fill="#FFFFFF" stroke="#1B2A38" stroke-width="3" stroke-linejoin="round"/>
<path d="M 226 300 Q 232 330 244 318 Q 256 338 266 312 L 334 312 Q 344 338 356 318 Q 368 330 374 300 Z" id="r-giot-kem" data-region="giot-kem" class="region" fill="#FFFFFF" stroke="#1B2A38" stroke-width="3" stroke-linejoin="round"/>
<g class="deco" pointer-events="none"><circle cx="283.9" cy="276" r="5" fill="#1B2A38"/></g>
<g class="deco" pointer-events="none"><circle cx="316.1" cy="276" r="5" fill="#1B2A38"/></g>
<g class="deco" pointer-events="none"><circle cx="285.4" cy="274.1" r="1.6" fill="#FFFFFF"/></g>
<g class="deco" pointer-events="none"><circle cx="317.7" cy="274.1" r="1.6" fill="#FFFFFF"/></g>
<ellipse cx="271.5" cy="288.4" rx="6.8" ry="4.3" id="r-ma-trai" data-region="ma-trai" class="region" fill="#FFFFFF" stroke="#1B2A38" stroke-width="3" stroke-linejoin="round"/>
<ellipse cx="328.5" cy="288.4" rx="6.8" ry="4.3" id="r-ma-phai" data-region="ma-phai" class="region" fill="#FFFFFF" stroke="#1B2A38" stroke-width="3" stroke-linejoin="round"/>
<g class="deco" pointer-events="none"><path d="M 290.7 294.6 Q 300 304.5 309.3 294.6" fill="none" stroke="#1B2A38" stroke-width="3.48" stroke-linecap="round" stroke-linejoin="round"/></g>
<path d="M 258 156 L 258 114 Q 220.2 93 247.5 57.3 Q 268.5 21.6 300 46.8 Q 331.5 21.6 352.5 57.3 Q 379.8 93 342 114 L 342 156 Z" id="r-mu-dau-bep" data-region="mu-dau-bep" class="region" fill="#FFFFFF" stroke="#1B2A38" stroke-width="3" stroke-linejoin="round"/>
<rect x="253.8" y="132.9" width="92.4" height="27.3" rx="6.3" id="r-vanh-mu-dau-bep" data-region="vanh-mu-dau-bep" class="region" fill="#FFFFFF" stroke="#1B2A38" stroke-width="3" stroke-linejoin="round"/>
<polygon points="416.9,428.8 436.9,298.8 427.1,297.2 407.1,427.2" id="r-can-muoi" data-region="can-muoi" class="region" fill="#FFFFFF" stroke="#1B2A38" stroke-width="3" stroke-linejoin="round"/>
<ellipse cx="434" cy="292" rx="26" ry="18" id="r-muoi-mui" data-region="muoi-mui" class="region" fill="#FFFFFF" stroke="#1B2A38" stroke-width="3" stroke-linejoin="round"/>
</g>
<g class="scene-front">
<rect x="50" y="470" width="120" height="70" rx="14" id="r-noi-nau" data-region="noi-nau" class="region" fill="#FFFFFF" stroke="#1B2A38" stroke-width="3" stroke-linejoin="round"/>
<rect x="42" y="462" width="136" height="16" rx="6" id="r-mieng-noi" data-region="mieng-noi" class="region" fill="#FFFFFF" stroke="#1B2A38" stroke-width="3" stroke-linejoin="round"/>
<ellipse cx="90" cy="434" rx="12" ry="12" id="r-hoi-1" data-region="hoi-1" class="region" fill="#FFFFFF" stroke="#1B2A38" stroke-width="3" stroke-linejoin="round"/>
<ellipse cx="126" cy="416" rx="14" ry="14" id="r-hoi-2" data-region="hoi-2" class="region" fill="#FFFFFF" stroke="#1B2A38" stroke-width="3" stroke-linejoin="round"/>
</g>
</svg>