<svg xmlns="http://www.w3.org/2000/svg" viewBox="0 0 600 600" data-picture="nha-pho--ten-lua-day">
<g class="scene-back">
<rect x="0" y="0" width="600" height="600" rx="0" id="r-nen-troi" data-region="nen-troi" class="region" fill="#FFFFFF" stroke="#1B2A38" stroke-width="3" stroke-linejoin="round"/>
<ellipse cx="505" cy="150" rx="54" ry="54" id="r-mat-troi" data-region="mat-troi" class="region" fill="#FFFFFF" stroke="#1B2A38" stroke-width="3" stroke-linejoin="round"/>
<ellipse cx="95" cy="90" rx="90" ry="14" id="r-dai-may-1" data-region="dai-may-1" class="region" fill="#FFFFFF" stroke="#1B2A38" stroke-width="3" stroke-linejoin="round"/>
<rect x="20" y="330" width="120" height="140" rx="4" id="r-nha-mai-1" data-region="nha-mai-1" class="region" fill="#FFFFFF" stroke="#1B2A38" stroke-width="3" stroke-linejoin="round"/>
<polygon points="10,336 80,270 150,336" id="r-mai-1" data-region="mai-1" class="region" fill="#FFFFFF" stroke="#1B2A38" stroke-width="3" stroke-linejoin="round"/>
<rect x="460" y="350" width="120" height="120" rx="4" id="r-nha-mai-2" data-region="nha-mai-2" class="region" fill="#FFFFFF" stroke="#1B2A38" stroke-width="3" stroke-linejoin="round"/>
<polygon points="450,356 520,290 590,356" id="r-mai-2" data-region="mai-2" class="region" fill="#FFFFFF" stroke="#1B2A38" stroke-width="3" stroke-linejoin="round"/>
<rect x="0" y="470" width="600" height="130" rx="0" id="r-nen-dat" data-region="nen-dat" class="region" fill="#FFFFFF" stroke="#1B2A38" stroke-width="3" stroke-linejoin="round"/>
</g>
<g id="subject" class="subject anim-float" transform="translate(0 -70) translate(300 300) scale(0.78) rotate(0) translate(-300 -300)">
<polygon points="236,510 250,566 264,510" id="r-lua-ten-lua-nha-1" data-region="lua-ten-lua-nha-1" class="region" fill="#FFFFFF" stroke="#1B2A38" stroke-width="3" stroke-linejoin="round"/>
<rect x="232" y="440" width="36" height="72" rx="14" id="r-ten-lua-nha-1" data-region="ten-lua-nha-1" class="region" fill="#FFFFFF" stroke="#1B2A38" stroke-width="3" stroke-linejoin="round"/>
<polygon points="336,510 350,566 364,510" id="r-lua-ten-lua-nha-2" data-region="lua-ten-lua-nha-2" class="region" fill="#FFFFFF" stroke="#1B2A38" stroke-width="3" stroke-linejoin="round"/>
<rect x="332" y="440" width="36" height="72" rx="14" id="r-ten-lua-nha-2" data-region="ten-lua-nha-2" class="region" fill="#FFFFFF" stroke="#1B2A38" stroke-width="3" stroke-linejoin="round"/>
<rect x="220" y="190" width="160" height="280" rx="4" id="r-tuong-nha-pho" data-region="tuong-nha-pho" class="region" fill="#FFFFFF" stroke="#1B2A38" stroke-width="3" stroke-linejoin="round"/>
<polygon points="206,196 300,120 394,196" id="r-mai-nha-pho" data-region="mai-nha-pho" class="region" fill="#FFFFFF" stroke="#1B2A38" stroke-width="3" stroke-linejoin="round"/>
<rect x="240" y="300" width="120" height="18" rx="4" id="r-ban-cong" data-region="ban-cong" class="region" fill="#FFFFFF" stroke="#1B2A38" stroke-width="3" stroke-linejoin="round"/>
<rect x="240" y="214" width="48" height="60" rx="6" id="r-cua-so-tang-tren-1" data-region="cua-so-tang-tren-1" class="region" fill="#FFFFFF" stroke="#1B2A38" stroke-width="3" stroke-linejoin="round"/>
<rect x="312" y="214" width="48" height="60" rx="6" id="r-cua-so-tang-tren-2" data-region="cua-so-tang-tren-2" class="region" fill="#FFFFFF" stroke="#1B2A38" stroke-width="3" stroke-linejoin="round"/>
<rect x="240" y="340" width="48" height="54" rx="6" id="r-cua-so-tang-duoi" data-region="cua-so-tang-duoi" class="region" fill="#FFFFFF" stroke="#1B2A38" stroke-width="3" stroke-linejoin="round"/>
<rect x="312" y="370" width="50" height="100" rx="6" id="r-cua-nha-pho" data-region="cua-nha-pho" class="region" fill="#FFFFFF" stroke="#1B2A38" stroke-width="3" stroke-linejoin="round"/>
<polygon points="300,372 374,372 366,350 308,350" id="r-mai-hien" data-region="mai-hien" class="region" fill="#FFFFFF" stroke="#1B2A38" stroke-width="3" stroke-linejoin="round"/>
<ellipse cx="300" cy="164" rx="16" ry="16" id="r-cua-so-tron-gac" data-region="cua-so-tron-gac" class="region" fill="#FFFFFF" stroke="#1B2A38" stroke-width="3" stroke-linejoin="round"/>
</g>
<g class="scene-front">

</g>
</svg>