<svg xmlns="http://www.w3.org/2000/svg" viewBox="0 0 600 600" data-picture="nha-pho--the-c-ngoi-nha-nho">
<g class="scene-back">
<rect x="0" y="0" width="600" height="600" rx="0" id="r-nen-troi" data-region="nen-troi" class="region" fill="#FFFFFF" stroke="#1B2A38" stroke-width="3" stroke-linejoin="round"/>
<polygon points="510,20 522.9,43.7 546,29.6 545.4,56.6 572.4,56 558.3,79.1 582,92 558.3,104.9 572.4,128 545.4,127.4 546,154.4 522.9,140.3 510,164 497.1,140.3 474,154.4 474.6,127.4 447.6,128 461.7,104.9 438,92 461.7,79.1 447.6,56 474.6,56.6 474,29.6 497.1,43.7" id="r-tia-nang" data-region="tia-nang" class="region" fill="#FFFFFF" stroke="#1B2A38" stroke-width="3" stroke-linejoin="round"/>
<ellipse cx="510" cy="92" rx="42" ry="42" id="r-mat-troi" data-region="mat-troi" class="region" fill="#FFFFFF" stroke="#1B2A38" stroke-width="3" stroke-linejoin="round"/>
<path d="M 57.5 128.8 Q 35 128.8 41 110 Q 36.5 83.8 68.8 83.8 Q 76.3 59 104 65 Q 123.5 44 146 68.8 Q 179 63.5 174.5 96.5 Q 188 128.8 162.5 128.8 Z" id="r-may-1" data-region="may-1" class="region" fill="#FFFFFF" stroke="#1B2A38" stroke-width="3" stroke-linejoin="round"/>
<path d="M 288 85 Q 270 85 274.8 70 Q 271.2 49 297 49 Q 303 29.2 325.2 34 Q 340.8 17.2 358.8 37 Q 385.2 32.8 381.6 59.2 Q 392.4 85 372 85 Z" id="r-may-2" data-region="may-2" class="region" fill="#FFFFFF" stroke="#1B2A38" stroke-width="3" stroke-linejoin="round"/>
<path d="M 0 470 Q 150 440 300 465 Q 450 490 600 455 L 600 600 L 0 600 Z" id="r-nen-dat" data-region="nen-dat" class="region" fill="#FFFFFF" stroke="#1B2A38" stroke-width="3" stroke-linejoin="round"/>
</g>
<g id="subject" class="subject anim-float">
<rect x="220" y="190" width="160" height="280" rx="4" id="r-tuong-nha-pho" data-region="tuong-nha-pho" class="region" fill="#FFFFFF" stroke="#1B2A38" stroke-width="3" stroke-linejoin="round"/>
<polygon points="206,196 300,120 394,196" id="r-mai-nha-pho" data-region="mai-nha-pho" class="region" fill="#FFFFFF" stroke="#1B2A38" stroke-width="3" stroke-linejoin="round"/>
<rect x="240" y="300" width="120" height="18" rx="4" id="r-ban-cong" data-region="ban-cong" class="region" fill="#FFFFFF" stroke="#1B2A38" stroke-width="3" stroke-linejoin="round"/>
<rect x="240" y="214" width="48" height="60" rx="6" id="r-cua-so-tang-tren-1" data-region="cua-so-tang-tren-1" class="region" fill="#FFFFFF" stroke="#1B2A38" stroke-width="3" stroke-linejoin="round"/>
<rect x="312" y="214" width="48" height="60" rx="6" id="r-cua-so-tang-tren-2" data-region="cua-so-tang-tren-2" class="region" fill="#FFFFFF" stroke="#1B2A38" stroke-width="3" stroke-linejoin="round"/>
<rect x="240" y="340" width="48" height="54" rx="6" id="r-cua-so-tang-duoi" data-region="cua-so-tang-duoi" class="region" fill="#FFFFFF" stroke="#1B2A38" stroke-width="3" stroke-linejoin="round"/>
<rect x="312" y="370" width="50" height="100" rx="6" id="r-cua-nha-pho" data-region="cua-nha-pho" class="region" fill="#FFFFFF" stroke="#1B2A38" stroke-width="3" stroke-linejoin="round"/>
<polygon points="300,372 374,372 366,350 308,350" id="r-mai-hien" data-region="mai-hien" class="region" fill="#FFFFFF" stroke="#1B2A38" stroke-width="3" stroke-linejoin="round"/>
<ellipse cx="300" cy="164" rx="16" ry="16" id="r-cua-so-tron-gac" data-region="cua-so-tron-gac" class="region" fill="#FFFFFF" stroke="#1B2A38" stroke-width="3" stroke-linejoin="round"/>
</g>
<g class="scene-front">

</g>
</svg>