<svg xmlns="http://www.w3.org/2000/svg" viewBox="0 0 600 600" data-picture="cay--the-b-bong-bay">
<g class="scene-back">
<rect x="0" y="0" width="600" height="600" rx="0" id="r-nen-troi" data-region="nen-troi" class="region" fill="#FFFFFF" stroke="#1B2A38" stroke-width="3" stroke-linejoin="round"/>
<path d="M 57.5 128.8 Q 35 128.8 41 110 Q 36.5 83.8 68.8 83.8 Q 76.3 59 104 65 Q 123.5 44 146 68.8 Q 179 63.5 174.5 96.5 Q 188 128.8 162.5 128.8 Z" id="r-may-1" data-region="may-1" class="region" fill="#FFFFFF" stroke="#1B2A38" stroke-width="3" stroke-linejoin="round"/>
<path d="M 288 85 Q 270 85 274.8 70 Q 271.2 49 297 49 Q 303 29.2 325.2 34 Q 340.8 17.2 358.8 37 Q 385.2 32.8 381.6 59.2 Q 392.4 85 372 85 Z" id="r-may-2" data-region="may-2" class="region" fill="#FFFFFF" stroke="#1B2A38" stroke-width="3" stroke-linejoin="round"/>
<path d="M 0 470 Q 150 440 300 465 Q 450 490 600 455 L 600 600 L 0 600 Z" id="r-nen-dat" data-region="nen-dat" class="region" fill="#FFFFFF" stroke="#1B2A38" stroke-width="3" stroke-linejoin="round"/>
</g>
<g id="subject" class="subject anim-sway">
<path d="M 268 482 L 280 330 L 320 330 L 332 482 Q 300 492 268 482 Z" id="r-than-cay" data-region="than-cay" class="region" fill="#FFFFFF" stroke="#1B2A38" stroke-width="3" stroke-linejoin="round"/>
<ellipse cx="300" cy="420" rx="12" ry="18" id="r-hoc-cay" data-region="hoc-cay" class="region" fill="#FFFFFF" stroke="#1B2A38" stroke-width="3" stroke-linejoin="round"/>
<ellipse cx="225" cy="262" rx="70" ry="70" id="r-tan-la-trai" data-region="tan-la-trai" class="region" fill="#FFFFFF" stroke="#1B2A38" stroke-width="3" stroke-linejoin="round"/>
<ellipse cx="375" cy="262" rx="70" ry="70" id="r-tan-la-phai" data-region="tan-la-phai" class="region" fill="#FFFFFF" stroke="#1B2A38" stroke-width="3" stroke-linejoin="round"/>
<ellipse cx="300" cy="305" rx="78" ry="78" id="r-tan-la-duoi" data-region="tan-la-duoi" class="region" fill="#FFFFFF" stroke="#1B2A38" stroke-width="3" stroke-linejoin="round"/>
<ellipse cx="300" cy="205" rx="92" ry="92" id="r-tan-la-tren" data-region="tan-la-tren" class="region" fill="#FFFFFF" stroke="#1B2A38" stroke-width="3" stroke-linejoin="round"/>
<ellipse cx="222" cy="250" rx="13" ry="13" id="r-qua-1" data-region="qua-1" class="region" fill="#FFFFFF" stroke="#1B2A38" stroke-width="3" stroke-linejoin="round"/>
<ellipse cx="370" cy="190" rx="13" ry="13" id="r-qua-2" data-region="qua-2" class="region" fill="#FFFFFF" stroke="#1B2A38" stroke-width="3" stroke-linejoin="round"/>
<ellipse cx="385" cy="292" rx="13" ry="13" id="r-qua-3" data-region="qua-3" class="region" fill="#FFFFFF" stroke="#1B2A38" stroke-width="3" stroke-linejoin="round"/>
<ellipse cx="250" cy="318" rx="13" ry="13" id="r-qua-4" data-region="qua-4" class="region" fill="#FFFFFF" stroke="#1B2A38" stroke-width="3" stroke-linejoin="round"/>
<g class="deco" pointer-events="none"><circle cx="281.8" cy="228" r="5.6" fill="#1B2A38"/></g>
<g class="deco" pointer-events="none"><circle cx="318.2" cy="228" r="5.6" fill="#1B2A38"/></g>
<g class="deco" pointer-events="none"><circle cx="283.6" cy="225.9" r="1.8" fill="#FFFFFF"/></g>
<g class="deco" pointer-events="none"><circle cx="320" cy="225.9" r="1.8" fill="#FFFFFF"/></g>
<ellipse cx="267.8" cy="242" rx="7.7" ry="4.9" id="r-ma-trai" data-region="ma-trai" class="region" fill="#FFFFFF" stroke="#1B2A38" stroke-width="3" stroke-linejoin="round"/>
<ellipse cx="332.2" cy="242" rx="7.7" ry="4.9" id="r-ma-phai" data-region="ma-phai" class="region" fill="#FFFFFF" stroke="#1B2A38" stroke-width="3" stroke-linejoin="round"/>
<g class="deco" pointer-events="none"><path d="M 289.5 249 Q 300 260.2 310.5 249" fill="none" stroke="#1B2A38" stroke-width="3.8" stroke-linecap="round" stroke-linejoin="round"/></g>
<polygon points="267.6,119.4 300,40.2 332.4,119.4" id="r-mu-tiec" data-region="mu-tiec" class="region" fill="#FFFFFF" stroke="#1B2A38" stroke-width="3" stroke-linejoin="round"/>
<polygon points="280.2,88.8 319.8,88.8 312.6,70.8 287.4,70.8" id="r-soc-mu" data-region="soc-mu" class="region" fill="#FFFFFF" stroke="#1B2A38" stroke-width="3" stroke-linejoin="round"/>
<ellipse cx="300" cy="38.4" rx="9.9" ry="9.9" id="r-bong-mu" data-region="bong-mu" class="region" fill="#FFFFFF" stroke="#1B2A38" stroke-width="3" stroke-linejoin="round"/>
</g>
<g class="scene-front">
<g class="deco" pointer-events="none"><path d="M 90 190 Q 100 280 80 380 M 150 150 Q 140 260 150 360 M 515 175 Q 505 270 525 380" fill="none" stroke="#1B2A38" stroke-width="2" stroke-linecap="round" stroke-linejoin="round"/></g>
<ellipse cx="90" cy="150" rx="32" ry="40" id="r-bong-bay-1" data-region="bong-bay-1" class="region" fill="#FFFFFF" stroke="#1B2A38" stroke-width="3" stroke-linejoin="round"/>
<ellipse cx="150" cy="108" rx="28" ry="36" id="r-bong-bay-2" data-region="bong-bay-2" class="region" fill="#FFFFFF" stroke="#1B2A38" stroke-width="3" stroke-linejoin="round"/>
<ellipse cx="515" cy="135" rx="32" ry="40" id="r-bong-bay-3" data-region="bong-bay-3" class="region" fill="#FFFFFF" stroke="#1B2A38" stroke-width="3" stroke-linejoin="round"/>
<rect x="33" y="36" width="14" height="8" rx="2" id="r-hoa-giay-1" data-region="hoa-giay-1" class="region" fill="#FFFFFF" stroke="#1B2A38" stroke-width="3" stroke-linejoin="round"/>
<rect x="213" y="36" width="14" height="8" rx="2" id="r-hoa-giay-2" data-region="hoa-giay-2" class="region" fill="#FFFFFF" stroke="#1B2A38" stroke-width="3" stroke-linejoin="round"/>
<rect x="393" y="26" width="14" height="8" rx="2" id="r-hoa-giay-3" data-region="hoa-giay-3" class="region" fill="#FFFFFF" stroke="#1B2A38" stroke-width="3" stroke-linejoin="round"/>
<rect x="573" y="36" width="14" height="8" rx="2" id="r-hoa-giay-4" data-region="hoa-giay-4" class="region" fill="#FFFFFF" stroke="#1B2A38" stroke-width="3" stroke-linejoin="round"/>
<rect x="23" y="436" width="14" height="8" rx="2" id="r-hoa-giay-5" data-region="hoa-giay-5" class="region" fill="#FFFFFF" stroke="#1B2A38" stroke-width="3" stroke-linejoin="round"/>
<rect x="568" y="446" width="14" height="8" rx="2" id="r-hoa-giay-6" data-region="hoa-giay-6" class="region" fill="#FFFFFF" stroke="#1B2A38" stroke-width="3" stroke-linejoin="round"/>
</g>
</svg>