<svg xmlns="http://www.w3.org/2000/svg" viewBox="0 0 600 600" data-picture="banh-kem--cong-chua">
<g class="scene-back">
<rect x="0" y="0" width="600" height="600" rx="0" id="r-nen-troi" data-region="nen-troi" class="region" fill="#FFFFFF" stroke="#1B2A38" stroke-width="3" stroke-linejoin="round"/>
<path d="M 0 470 Q 150 440 300 465 Q 450 490 600 455 L 600 600 L 0 600 Z" id="r-nen-dat" data-region="nen-dat" class="region" fill="#FFFFFF" stroke="#1B2A38" stroke-width="3" stroke-linejoin="round"/>
<ellipse cx="70" cy="504" rx="9" ry="9" id="r-hoa-nho-1-canh-1" data-region="hoa-nho-1-canh-1" class="region" fill="#FFFFFF" stroke="#1B2A38" stroke-width="3" stroke-linejoin="round"/>
<ellipse cx="80.5" cy="511.6" rx="9" ry="9" id="r-hoa-nho-1-canh-2" data-region="hoa-nho-1-canh-2" class="region" fill="#FFFFFF" stroke="#1B2A38" stroke-width="3" stroke-linejoin="round"/>
<ellipse cx="76.5" cy="523.9" rx="9" ry="9" id="r-hoa-nho-1-canh-3" data-region="hoa-nho-1-canh-3" class="region" fill="#FFFFFF" stroke="#1B2A38" stroke-width="3" stroke-linejoin="round"/>
<ellipse cx="63.5" cy="523.9" rx="9" ry="9" id="r-hoa-nho-1-canh-4" data-region="hoa-nho-1-canh-4" class="region" fill="#FFFFFF" stroke="#1B2A38" stroke-width="3" stroke-linejoin="round"/>
<ellipse cx="59.5" cy="511.6" rx="9" ry="9" id="r-hoa-nho-1-canh-5" data-region="hoa-nho-1-canh-5" class="region" fill="#FFFFFF" stroke="#1B2A38" stroke-width="3" stroke-linejoin="round"/>
<ellipse cx="70" cy="515" rx="7" ry="7" id="r-hoa-nho-1-nhuy" data-region="hoa-nho-1-nhuy" class="region" fill="#FFFFFF" stroke="#1B2A38" stroke-width="3" stroke-linejoin="round"/>
<ellipse cx="150" cy="537" rx="9" ry="9" id="r-hoa-nho-2-canh-1" data-region="hoa-nho-2-canh-1" class="region" fill="#FFFFFF" stroke="#1B2A38" stroke-width="3" stroke-linejoin="round"/>
<ellipse cx="160.5" cy="544.6" rx="9" ry="9" id="r-hoa-nho-2-canh-2" data-region="hoa-nho-2-canh-2" class="region" fill="#FFFFFF" stroke="#1B2A38" stroke-width="3" stroke-linejoin="round"/>
<ellipse cx="156.5" cy="556.9" rx="9" ry="9" id="r-hoa-nho-2-canh-3" data-region="hoa-nho-2-canh-3" class="region" fill="#FFFFFF" stroke="#1B2A38" stroke-width="3" stroke-linejoin="round"/>
<ellipse cx="143.5" cy="556.9" rx="9" ry="9" id="r-hoa-nho-2-canh-4" data-region="hoa-nho-2-canh-4" class="region" fill="#FFFFFF" stroke="#1B2A38" stroke-width="3" stroke-linejoin="round"/>
<ellipse cx="139.5" cy="544.6" rx="9" ry="9" id="r-hoa-nho-2-canh-5" data-region="hoa-nho-2-canh-5" class="region" fill="#FFFFFF" stroke="#1B2A38" stroke-width="3" stroke-linejoin="round"/>
<ellipse cx="150" cy="548" rx="7" ry="7" id="r-hoa-nho-2-nhuy" data-region="hoa-nho-2-nhuy" class="region" fill="#FFFFFF" stroke="#1B2A38" stroke-width="3" stroke-linejoin="round"/>
<ellipse cx="455" cy="537" rx="9" ry="9" id="r-hoa-nho-3-canh-1" data-region="hoa-nho-3-canh-1" class="region" fill="#FFFFFF" stroke="#1B2A38" stroke-width="3" stroke-linejoin="round"/>
<ellipse cx="465.5" cy="544.6" rx="9" ry="9" id="r-hoa-nho-3-canh-2" data-region="hoa-nho-3-canh-2" class="region" fill="#FFFFFF" stroke="#1B2A38" stroke-width="3" stroke-linejoin="round"/>
<ellipse cx="461.5" cy="556.9" rx="9" ry="9" id="r-hoa-nho-3-canh-3" data-region="hoa-nho-3-canh-3" class="region" fill="#FFFFFF" stroke="#1B2A38" stroke-width="3" stroke-linejoin="round"/>
<ellipse cx="448.5" cy="556.9" rx="9" ry="9" id="r-hoa-nho-3-canh-4" data-region="hoa-nho-3-canh-4" class="region" fill="#FFFFFF" stroke="#1B2A38" stroke-width="3" stroke-linejoin="round"/>
<ellipse cx="444.5" cy="544.6" rx="9" ry="9" id="r-hoa-nho-3-canh-5" data-region="hoa-nho-3-canh-5" class="region" fill="#FFFFFF" stroke="#1B2A38" stroke-width="3" stroke-linejoin="round"/>
<ellipse cx="455" cy="548" rx="7" ry="7" id="r-hoa-nho-3-nhuy" data-region="hoa-nho-3-nhuy" class="region" fill="#FFFFFF" stroke="#1B2A38" stroke-width="3" stroke-linejoin="round"/>
<ellipse cx="535" cy="501" rx="9" ry="9" id="r-hoa-nho-4-canh-1" data-region="hoa-nho-4-canh-1" class="region" fill="#FFFFFF" stroke="#1B2A38" stroke-width="3" stroke-linejoin="round"/>
<ellipse cx="545.5" cy="508.6" rx="9" ry="9" id="r-hoa-nho-4-canh-2" data-region="hoa-nho-4-canh-2" class="region" fill="#FFFFFF" stroke="#1B2A38" stroke-width="3" stroke-linejoin="round"/>
<ellipse cx="541.5" cy="520.9" rx="9" ry="9" id="r-hoa-nho-4-canh-3" data-region="hoa-nho-4-canh-3" class="region" fill="#FFFFFF" stroke="#1B2A38" stroke-width="3" stroke-linejoin="round"/>
<ellipse cx="528.5" cy="520.9" rx="9" ry="9" id="r-hoa-nho-4-canh-4" data-region="hoa-nho-4-canh-4" class="region" fill="#FFFFFF" stroke="#1B2A38" stroke-width="3" stroke-linejoin="round"/>
<ellipse cx="524.5" cy="508.6" rx="9" ry="9" id="r-hoa-nho-4-canh-5" data-region="hoa-nho-4-canh-5" class="region" fill="#FFFFFF" stroke="#1B2A38" stroke-width="3" stroke-linejoin="round"/>
<ellipse cx="535" cy="512" rx="7" ry="7" id="r-hoa-nho-4-nhuy" data-region="hoa-nho-4-nhuy" class="region" fill="#FFFFFF" stroke="#1B2A38" stroke-width="3" stroke-linejoin="round"/>
<path d="M 51 470 L 51 330 Q 51 286 86 286 Q 120 286 120 320 L 102 320 Q 102 304 86 304 Q 69 304 69 330 L 69 470 Z" id="r-keo-gay-trai" data-region="keo-gay-trai" class="region" fill="#FFFFFF" stroke="#1B2A38" stroke-width="3" stroke-linejoin="round"/>
<path d="M 491 470 L 491 330 Q 491 286 526 286 Q 560 286 560 320 L 542 320 Q 542 304 526 304 Q 509 304 509 330 L 509 470 Z" id="r-keo-gay-phai" data-region="keo-gay-phai" class="region" fill="#FFFFFF" stroke="#1B2A38" stroke-width="3" stroke-linejoin="round"/>
</g>
<g id="subject" class="subject anim-float">
<rect x="164" y="380" width="272" height="100" rx="16" id="r-tang-duoi" data-region="tang-duoi" class="region" fill="#FFFFFF" stroke="#1B2A38" stroke-width="3" stroke-linejoin="round"/>
<path d="M 164 396 Q 164 380 180 380 L 420 380 Q 436 380 436 396 Q 420 414 404 398 Q 386 418 368 398 Q 350 418 332 398 Q 314 418 296 398 Q 278 418 260 398 Q 242 418 224 398 Q 206 418 188 398 Q 176 414 164 396 Z" id="r-kem-tang-duoi" data-region="kem-tang-duoi" class="region" fill="#FFFFFF" stroke="#1B2A38" stroke-width="3" stroke-linejoin="round"/>
<rect x="204" y="300" width="192" height="84" rx="14" id="r-tang-giua" data-region="tang-giua" class="region" fill="#FFFFFF" stroke="#1B2A38" stroke-width="3" stroke-linejoin="round"/>
<path d="M 204 314 Q 204 300 218 300 L 382 300 Q 396 300 396 314 Q 380 332 364 316 Q 346 334 330 316 Q 312 334 296 316 Q 278 334 262 316 Q 244 334 228 316 Q 214 330 204 314 Z" id="r-kem-tang-giua" data-region="kem-tang-giua" class="region" fill="#FFFFFF" stroke="#1B2A38" stroke-width="3" stroke-linejoin="round"/>
<rect x="240" y="232" width="120" height="72" rx="12" id="r-tang-tren" data-region="tang-tren" class="region" fill="#FFFFFF" stroke="#1B2A38" stroke-width="3" stroke-linejoin="round"/>
<path d="M 240 244 Q 240 232 252 232 L 348 232 Q 360 232 360 244 Q 346 260 332 246 Q 316 262 300 246 Q 284 262 268 246 Q 254 260 240 244 Z" id="r-kem-tang-tren" data-region="kem-tang-tren" class="region" fill="#FFFFFF" stroke="#1B2A38" stroke-width="3" stroke-linejoin="round"/>
<rect x="244" y="190" width="14" height="44" rx="4" id="r-nen-trai" data-region="nen-trai" class="region" fill="#FFFFFF" stroke="#1B2A38" stroke-width="3" stroke-linejoin="round"/>
<path d="M 251 188 C 240 176 246 162 251 154 C 256 162 262 176 251 188 Z" id="r-lua-nen-trai" data-region="lua-nen-trai" class="region" fill="#FFFFFF" stroke="#1B2A38" stroke-width="3" stroke-linejoin="round"/>
<rect x="342" y="190" width="14" height="44" rx="4" id="r-nen-phai" data-region="nen-phai" class="region" fill="#FFFFFF" stroke="#1B2A38" stroke-width="3" stroke-linejoin="round"/>
<path d="M 349 188 C 338 176 344 162 349 154 C 354 162 360 176 349 188 Z" id="r-lua-nen-phai" data-region="lua-nen-phai" class="region" fill="#FFFFFF" stroke="#1B2A38" stroke-width="3" stroke-linejoin="round"/>
<ellipse cx="206" cy="452" rx="12" ry="12" id="r-qua-dau-1" data-region="qua-dau-1" class="region" fill="#FFFFFF" stroke="#1B2A38" stroke-width="3" stroke-linejoin="round"/>
<ellipse cx="394" cy="452" rx="12" ry="12" id="r-qua-dau-2" data-region="qua-dau-2" class="region" fill="#FFFFFF" stroke="#1B2A38" stroke-width="3" stroke-linejoin="round"/>
<g class="deco" pointer-events="none"><circle cx="284.4" cy="428" r="4.8" fill="#1B2A38"/></g>
<g class="deco" pointer-events="none"><circle cx="315.6" cy="428" r="4.8" fill="#1B2A38"/></g>
<g class="deco" pointer-events="none"><circle cx="285.9" cy="426.2" r="1.6" fill="#FFFFFF"/></g>
<g class="deco" pointer-events="none"><circle cx="317.1" cy="426.2" r="1.6" fill="#FFFFFF"/></g>
<ellipse cx="272.4" cy="440" rx="6.6" ry="4.2" id="r-ma-trai" data-region="ma-trai" class="region" fill="#FFFFFF" stroke="#1B2A38" stroke-width="3" stroke-linejoin="round"/>
<ellipse cx="327.6" cy="440" rx="6.6" ry="4.2" id="r-ma-phai" data-region="ma-phai" class="region" fill="#FFFFFF" stroke="#1B2A38" stroke-width="3" stroke-linejoin="round"/>
<g class="deco" pointer-events="none"><path d="M 291 446 Q 300 455.6 309 446" fill="none" stroke="#1B2A38" stroke-width="3.4" stroke-linecap="round" stroke-linejoin="round"/></g>
<polygon points="253.2,239.4 264,212.4 280.2,226.8 300,194.4 319.8,226.8 336,212.4 346.8,239.4" id="r-mieng-vuong-mien" data-region="mieng-vuong-mien" class="region" fill="#FFFFFF" stroke="#1B2A38" stroke-width="3" stroke-linejoin="round"/>
<path d="M 300 230.9 C 281.1 218.3 287.4 204.5 300 213.3 C 312.6 204.5 318.9 218.3 300 230.9 Z" id="r-tim-vuong-mien" data-region="tim-vuong-mien" class="region" fill="#FFFFFF" stroke="#1B2A38" stroke-width="3" stroke-linejoin="round"/>
<ellipse cx="264" cy="212.4" rx="5.4" ry="5.4" id="r-ngoc-trai-tiara" data-region="ngoc-trai-tiara" class="region" fill="#FFFFFF" stroke="#1B2A38" stroke-width="3" stroke-linejoin="round"/>
<ellipse cx="336" cy="212.4" rx="5.4" ry="5.4" id="r-ngoc-phai-tiara" data-region="ngoc-phai-tiara" class="region" fill="#FFFFFF" stroke="#1B2A38" stroke-width="3" stroke-linejoin="round"/>
</g>
<g class="scene-front">
<path d="M 60 399.8 C 27 377.8 38 353.6 60 369 C 82 353.6 93 377.8 60 399.8 Z" id="r-trai-tim-1" data-region="trai-tim-1" class="region" fill="#FFFFFF" stroke="#1B2A38" stroke-width="3" stroke-linejoin="round"/>
<path d="M 545 379.8 C 512 357.8 523 333.6 545 349 C 567 333.6 578 357.8 545 379.8 Z" id="r-trai-tim-2" data-region="trai-tim-2" class="region" fill="#FFFFFF" stroke="#1B2A38" stroke-width="3" stroke-linejoin="round"/>
<path d="M 240 109.8 C 207 87.8 218 63.6 240 79 C 262 63.6 273 87.8 240 109.8 Z" id="r-trai-tim-3" data-region="trai-tim-3" class="region" fill="#FFFFFF" stroke="#1B2A38" stroke-width="3" stroke-linejoin="round"/>
<g class="deco" pointer-events="none"><path d="M 51 350 L 69 336 M 51 390 L 69 376 M 51 430 L 69 416 M 491 350 L 509 336 M 491 390 L 509 376 M 491 430 L 509 416" fill="none" stroke="#1B2A38" stroke-width="5" stroke-linecap="round" stroke-linejoin="round"/></g>
</g>
</svg>