<svg xmlns="http://www.w3.org/2000/svg" viewBox="0 0 600 600" data-picture="tho--the-b-bong-bay">
<g class="scene-back">
<rect x="0" y="0" width="600" height="600" rx="0" id="r-nen-troi" data-region="nen-troi" class="region" fill="#FFFFFF" stroke="#1B2A38" stroke-width="3" stroke-linejoin="round"/>
<path d="M 57.5 128.8 Q 35 128.8 41 110 Q 36.5 83.8 68.8 83.8 Q 76.3 59 104 65 Q 123.5 44 146 68.8 Q 179 63.5 174.5 96.5 Q 188 128.8 162.5 128.8 Z" id="r-may-1" data-region="may-1" class="region" fill="#FFFFFF" stroke="#1B2A38" stroke-width="3" stroke-linejoin="round"/>
<path d="M 288 85 Q 270 85 274.8 70 Q 271.2 49 297 49 Q 303 29.2 325.2 34 Q 340.8 17.2 358.8 37 Q 385.2 32.8 381.6 59.2 Q 392.4 85 372 85 Z" id="r-may-2" data-region="may-2" class="region" fill="#FFFFFF" stroke="#1B2A38" stroke-width="3" stroke-linejoin="round"/>
<path d="M 0 470 Q 150 440 300 465 Q 450 490 600 455 L 600 600 L 0 600 Z" id="r-nen-dat" data-region="nen-dat" class="region" fill="#FFFFFF" stroke="#1B2A38" stroke-width="3" stroke-linejoin="round"/>
</g>
<g id="subject" class="subject anim-bounce">
<ellipse cx="262" cy="140" rx="24" ry="70" transform="rotate(-10 262 140)" id="r-tai-trai" data-region="tai-trai" class="region" fill="#FFFFFF" stroke="#1B2A38" stroke-width="3" stroke-linejoin="round"/>
<ellipse cx="262" cy="146" rx="12" ry="50" transform="rotate(-10 262 146)" id="r-trong-tai-trai" data-region="trong-tai-trai" class="region" fill="#FFFFFF" stroke="#1B2A38" stroke-width="3" stroke-linejoin="round"/>
<ellipse cx="338" cy="140" rx="24" ry="70" transform="rotate(10 338 140)" id="r-tai-phai" data-region="tai-phai" class="region" fill="#FFFFFF" stroke="#1B2A38" stroke-width="3" stroke-linejoin="round"/>
<ellipse cx="338" cy="146" rx="12" ry="50" transform="rotate(10 338 146)" id="r-trong-tai-phai" data-region="trong-tai-phai" class="region" fill="#FFFFFF" stroke="#1B2A38" stroke-width="3" stroke-linejoin="round"/>
<ellipse cx="382" cy="440" rx="24" ry="24" id="r-duoi" data-region="duoi" class="region" fill="#FFFFFF" stroke="#1B2A38" stroke-width="3" stroke-linejoin="round"/>
<ellipse cx="300" cy="415" rx="85" ry="75" id="r-than" data-region="than" class="region" fill="#FFFFFF" stroke="#1B2A38" stroke-width="3" stroke-linejoin="round"/>
<ellipse cx="300" cy="430" rx="48" ry="42" id="r-bung" data-region="bung" class="region" fill="#FFFFFF" stroke="#1B2A38" stroke-width="3" stroke-linejoin="round"/>
<ellipse cx="262" cy="482" rx="26" ry="15" id="r-chan-trai" data-region="chan-trai" class="region" fill="#FFFFFF" stroke="#1B2A38" stroke-width="3" stroke-linejoin="round"/>
<ellipse cx="338" cy="482" rx="26" ry="15" id="r-chan-phai" data-region="chan-phai" class="region" fill="#FFFFFF" stroke="#1B2A38" stroke-width="3" stroke-linejoin="round"/>
<ellipse cx="300" cy="258" rx="78" ry="78" id="r-dau" data-region="dau" class="region" fill="#FFFFFF" stroke="#1B2A38" stroke-width="3" stroke-linejoin="round"/>
<polygon points="293,266 307,266 300,274" id="r-mui" data-region="mui" class="region" fill="#FFFFFF" stroke="#1B2A38" stroke-width="3" stroke-linejoin="round"/>
<g class="deco" pointer-events="none"><circle cx="274" cy="250" r="8" fill="#1B2A38"/></g>
<g class="deco" pointer-events="none"><circle cx="326" cy="250" r="8" fill="#1B2A38"/></g>
<g class="deco" pointer-events="none"><circle cx="276.5" cy="247" r="2.6" fill="#FFFFFF"/></g>
<g class="deco" pointer-events="none"><circle cx="328.5" cy="247" r="2.6" fill="#FFFFFF"/></g>
<ellipse cx="254" cy="270" rx="11" ry="7" id="r-ma-trai" data-region="ma-trai" class="region" fill="#FFFFFF" stroke="#1B2A38" stroke-width="3" stroke-linejoin="round"/>
<ellipse cx="346" cy="270" rx="11" ry="7" id="r-ma-phai" data-region="ma-phai" class="region" fill="#FFFFFF" stroke="#1B2A38" stroke-width="3" stroke-linejoin="round"/>
<g class="deco" pointer-events="none"><path d="M 285 280 Q 300 296 315 280" fill="none" stroke="#1B2A38" stroke-width="5" stroke-linecap="round" stroke-linejoin="round"/></g>
<polygon points="269.4,191.1 300,116.3 330.6,191.1" id="r-mu-tiec" data-region="mu-tiec" class="region" fill="#FFFFFF" stroke="#1B2A38" stroke-width="3" stroke-linejoin="round"/>
<polygon points="281.3,162.2 318.7,162.2 311.9,145.2 288.1,145.2" id="r-soc-mu" data-region="soc-mu" class="region" fill="#FFFFFF" stroke="#1B2A38" stroke-width="3" stroke-linejoin="round"/>
<ellipse cx="300" cy="114.6" rx="9.4" ry="9.4" id="r-bong-mu" data-region="bong-mu" class="region" fill="#FFFFFF" stroke="#1B2A38" stroke-width="3" stroke-linejoin="round"/>
</g>
<g class="scene-front">
<g class="deco" pointer-events="none"><path d="M 90 190 Q 100 280 80 380 M 150 150 Q 140 260 150 360 M 515 175 Q 505 270 525 380" fill="none" stroke="#1B2A38" stroke-width="2" stroke-linecap="round" stroke-linejoin="round"/></g>
<ellipse cx="90" cy="150" rx="32" ry="40" id="r-bong-bay-1" data-region="bong-bay-1" class="region" fill="#FFFFFF" stroke="#1B2A38" stroke-width="3" stroke-linejoin="round"/>
<ellipse cx="150" cy="108" rx="28" ry="36" id="r-bong-bay-2" data-region="bong-bay-2" class="region" fill="#FFFFFF" stroke="#1B2A38" stroke-width="3" stroke-linejoin="round"/>
<ellipse cx="515" cy="135" rx="32" ry="40" id="r-bong-bay-3" data-region="bong-bay-3" class="region" fill="#FFFFFF" stroke="#1B2A38" stroke-width="3" stroke-linejoin="round"/>
<rect x="33" y="36" width="14" height="8" rx="2" id="r-hoa-giay-1" data-region="hoa-giay-1" class="region" fill="#FFFFFF" stroke="#1B2A38" stroke-width="3" stroke-linejoin="round"/>
<rect x="213" y="36" width="14" height="8" rx="2" id="r-hoa-giay-2" data-region="hoa-giay-2" class="region" fill="#FFFFFF" stroke="#1B2A38" stroke-width="3" stroke-linejoin="round"/>
<rect x="393" y="26" width="14" height="8" rx="2" id="r-hoa-giay-3" data-region="hoa-giay-3" class="region" fill="#FFFFFF" stroke="#1B2A38" stroke-width="3" stroke-linejoin="round"/>
<rect x="573" y="36" width="14" height="8" rx="2" id="r-hoa-giay-4" data-region="hoa-giay-4" class="region" fill="#FFFFFF" stroke="#1B2A38" stroke-width="3" stroke-linejoin="round"/>
<rect x="23" y="436" width="14" height="8" rx="2" id="r-hoa-giay-5" data-region="hoa-giay-5" class="region" fill="#FFFFFF" stroke="#1B2A38" stroke-width="3" stroke-linejoin="round"/>
<rect x="568" y="446" width="14" height="8" rx="2" id="r-hoa-giay-6" data-region="hoa-giay-6" class="region" fill="#FFFFFF" stroke="#1B2A38" stroke-width="3" stroke-linejoin="round"/>
</g>
</svg>