<svg xmlns="http://www.w3.org/2000/svg" viewBox="0 0 600 600" data-picture="voi-sieu-thu--dam-chan-dong-dat">
<g class="scene-back">
<rect x="0" y="0" width="600" height="600" rx="0" id="r-nen-troi" data-region="nen-troi" class="region" fill="#FFFFFF" stroke="#1B2A38" stroke-width="3" stroke-linejoin="round"/>
<ellipse cx="505" cy="150" rx="54" ry="54" id="r-mat-troi" data-region="mat-troi" class="region" fill="#FFFFFF" stroke="#1B2A38" stroke-width="3" stroke-linejoin="round"/>
<ellipse cx="95" cy="90" rx="90" ry="14" id="r-dai-may-1" data-region="dai-may-1" class="region" fill="#FFFFFF" stroke="#1B2A38" stroke-width="3" stroke-linejoin="round"/>
<polygon points="0,470 0,200 110,230 150,470" id="r-vach-nui-trai" data-region="vach-nui-trai" class="region" fill="#FFFFFF" stroke="#1B2A38" stroke-width="3" stroke-linejoin="round"/>
<polygon points="600,470 600,180 480,220 440,470" id="r-vach-nui-phai" data-region="vach-nui-phai" class="region" fill="#FFFFFF" stroke="#1B2A38" stroke-width="3" stroke-linejoin="round"/>
<rect x="0" y="470" width="600" height="130" rx="0" id="r-nen-dat" data-region="nen-dat" class="region" fill="#FFFFFF" stroke="#1B2A38" stroke-width="3" stroke-linejoin="round"/>
<polygon points="70,520 100,512 120,526 146,510 170,524 200,514 220,522 198,528 170,536 144,522 122,538 98,524" id="r-vet-nut-1" data-region="vet-nut-1" class="region" fill="#FFFFFF" stroke="#1B2A38" stroke-width="3" stroke-linejoin="round"/>
<polygon points="380,540 410,532 430,546 456,530 480,544 510,534 530,542 508,548 480,556 454,542 432,558 408,544" id="r-vet-nut-2" data-region="vet-nut-2" class="region" fill="#FFFFFF" stroke="#1B2A38" stroke-width="3" stroke-linejoin="round"/>
</g>
<g id="subject" class="subject anim-bounce">
<path d="M 256 336 L 344 336 Q 480 418 490 500 Q 395 482 300 500 Q 205 482 110 500 Q 120 418 256 336 Z" id="r-ao-choang" data-region="ao-choang" class="region" fill="#FFFFFF" stroke="#1B2A38" stroke-width="3" stroke-linejoin="round"/>
<ellipse cx="205" cy="250" rx="70" ry="85" transform="rotate(-10 205 250)" id="r-tai-trai" data-region="tai-trai" class="region" fill="#FFFFFF" stroke="#1B2A38" stroke-width="3" stroke-linejoin="round"/>
<ellipse cx="212" cy="256" rx="44" ry="58" transform="rotate(-10 212 256)" id="r-trong-tai-trai" data-region="trong-tai-trai" class="region" fill="#FFFFFF" stroke="#1B2A38" stroke-width="3" stroke-linejoin="round"/>
<ellipse cx="395" cy="250" rx="70" ry="85" transform="rotate(10 395 250)" id="r-tai-phai" data-region="tai-phai" class="region" fill="#FFFFFF" stroke="#1B2A38" stroke-width="3" stroke-linejoin="round"/>
<ellipse cx="388" cy="256" rx="44" ry="58" transform="rotate(10 388 256)" id="r-trong-tai-phai" data-region="trong-tai-phai" class="region" fill="#FFFFFF" stroke="#1B2A38" stroke-width="3" stroke-linejoin="round"/>
<ellipse cx="300" cy="420" rx="100" ry="70" id="r-than" data-region="than" class="region" fill="#FFFFFF" stroke="#1B2A38" stroke-width="3" stroke-linejoin="round"/>
<rect x="232" y="440" width="46" height="55" rx="14" id="r-chan-trai" data-region="chan-trai" class="region" fill="#FFFFFF" stroke="#1B2A38" stroke-width="3" stroke-linejoin="round"/>
<rect x="322" y="440" width="46" height="55" rx="14" id="r-chan-phai" data-region="chan-phai" class="region" fill="#FFFFFF" stroke="#1B2A38" stroke-width="3" stroke-linejoin="round"/>
<ellipse cx="300" cy="258" rx="85" ry="80" id="r-dau" data-region="dau" class="region" fill="#FFFFFF" stroke="#1B2A38" stroke-width="3" stroke-linejoin="round"/>
<path d="M 282 282 L 318 282 C 322 350 310 395 268 400 C 252 402 250 384 264 380 C 286 374 288 340 282 282 Z" id="r-voi" data-region="voi" class="region" fill="#FFFFFF" stroke="#1B2A38" stroke-width="3" stroke-linejoin="round"/>
<polygon points="270,292 282,296 262,318" id="r-nga-trai" data-region="nga-trai" class="region" fill="#FFFFFF" stroke="#1B2A38" stroke-width="3" stroke-linejoin="round"/>
<polygon points="330,292 318,296 338,318" id="r-nga-phai" data-region="nga-phai" class="region" fill="#FFFFFF" stroke="#1B2A38" stroke-width="3" stroke-linejoin="round"/>
<g class="deco" pointer-events="none"><circle cx="276.6" cy="236" r="7.2" fill="#1B2A38"/></g>
<g class="deco" pointer-events="none"><circle cx="323.4" cy="236" r="7.2" fill="#1B2A38"/></g>
<g class="deco" pointer-events="none"><circle cx="278.9" cy="233.3" r="2.3" fill="#FFFFFF"/></g>
<g class="deco" pointer-events="none"><circle cx="325.7" cy="233.3" r="2.3" fill="#FFFFFF"/></g>
<ellipse cx="258.6" cy="254" rx="9.9" ry="6.3" id="r-ma-trai" data-region="ma-trai" class="region" fill="#FFFFFF" stroke="#1B2A38" stroke-width="3" stroke-linejoin="round"/>
<ellipse cx="341.4" cy="254" rx="9.9" ry="6.3" id="r-ma-phai" data-region="ma-phai" class="region" fill="#FFFFFF" stroke="#1B2A38" stroke-width="3" stroke-linejoin="round"/>
<g class="deco" pointer-events="none"><path d="M 286.5 263 Q 300 277.4 313.5 263" fill="none" stroke="#1B2A38" stroke-width="4.6" stroke-linecap="round" stroke-linejoin="round"/></g>
</g>
<g class="scene-front">
<g class="deco" pointer-events="none"><path d="M 110 280 L 60 280 M 120 330 L 50 330 M 110 380 L 60 380 M 490 300 L 540 300 M 495 350 L 555 350" fill="none" stroke="#1B2A38" stroke-width="5" stroke-linecap="round" stroke-linejoin="round"/></g>
<polygon points="108.5,360 106.1,368 96.6,373.9 82.9,374.8 74.3,367.8 69.1,360 71.8,351 84.1,347.7 96.3,346.8 107.8,351.2" id="r-da-bay-1" data-region="da-bay-1" class="region" fill="#FFFFFF" stroke="#1B2A38" stroke-width="3" stroke-linejoin="round"/>
<ellipse cx="84.6" cy="356.4" rx="5.4" ry="2.9" transform="rotate(-15 84.6 356.4)" id="r-da-bay-1-van" data-region="da-bay-1-van" class="region" fill="#FFFFFF" stroke="#1B2A38" stroke-width="3" stroke-linejoin="round"/>
<polygon points="542.6,330 539.7,339.7 528.1,347 511.3,348.1 500.8,339.5 494.4,330 497.8,319 512.8,315 527.7,313.8 541.7,319.3" id="r-da-bay-2" data-region="da-bay-2" class="region" fill="#FFFFFF" stroke="#1B2A38" stroke-width="3" stroke-linejoin="round"/>
<ellipse cx="513.4" cy="325.6" rx="6.6" ry="3.5" transform="rotate(-15 513.4 325.6)" id="r-da-bay-2-van" data-region="da-bay-2-van" class="region" fill="#FFFFFF" stroke="#1B2A38" stroke-width="3" stroke-linejoin="round"/>
</g>
</svg>